<?xml version="1.0" encoding="utf-8"?>
<!-- Generator: Adobe Illustrator 16.0.0, SVG Export Plug-In . SVG Version: 6.00 Build 0)  -->
<!DOCTYPE svg PUBLIC "-//W3C//DTD SVG 1.1//EN" "http://www.w3.org/Graphics/SVG/1.1/DTD/svg11.dtd">
<svg version="1.1" id="Layer_1" xmlns="http://www.w3.org/2000/svg" xmlns:xlink="http://www.w3.org/1999/xlink" x="0px" y="0px"
	 width="1190.549px" height="841.891px" viewBox="0 0 1190.549 841.891" enable-background="new 0 0 1190.549 841.891"
	 xml:space="preserve">
<path d="M677.079,336.749l203.522-203.528c7.806-7.806,7.806-20.455,0-28.254l-53.545-53.544c-7.799-7.799-20.447-7.799-28.254,0
	L595.275,254.951L391.746,51.423c-7.8-7.799-20.455-7.799-28.261,0l-53.544,53.544c-7.807,7.799-7.807,20.448,0,28.254
	L513.47,336.749L309.948,540.285c-7.813,7.806-7.813,20.454,0,28.253l53.537,53.545c7.806,7.806,20.461,7.806,28.261,0
	l203.528-203.522l203.521,203.522c7.807,7.806,20.455,7.806,28.254,0l53.545-53.545c7.806-7.799,7.806-20.447,0-28.253
	L677.079,336.749z"/>
</svg>
