<?xml version="1.0" standalone="no"?>
<!DOCTYPE svg PUBLIC "-//W3C//DTD SVG 1.1//EN" "http://www.w3.org/Graphics/SVG/1.1/DTD/svg11.dtd" >
<svg xmlns="http://www.w3.org/2000/svg" xmlns:xlink="http://www.w3.org/1999/xlink" version="1.1">
<metadata></metadata>
<defs>
<font id="suisse_bp_intl_antiqueantique" horiz-adv-x="1304" >
<font-face units-per-em="2048" ascent="1536" descent="-512" />
<missing-glyph horiz-adv-x="430" />
<glyph unicode="&#xfb01;" horiz-adv-x="1126" d="M-2 809v195h145v57q0 77 15.5 130t43 86.5t76.5 51.5t105 24.5t139 6.5h88v-209h-51q-98 0 -125.5 -21t-27.5 -102v-24h204v-195h-204v-809h-263v809h-145zM745 0v1004h263v-1004h-263zM745 1116v244h263v-244h-263z" />
<glyph unicode="&#xfb02;" horiz-adv-x="1126" d="M-2 809v195h145v57q0 77 15.5 130t43 86.5t76.5 51.5t105 24.5t139 6.5h88v-209h-51q-98 0 -125.5 -21t-27.5 -102v-24h204v-195h-204v-809h-263v809h-145zM745 0v1360h263v-1360h-263z" />
<glyph unicode="&#xfb03;" horiz-adv-x="1753" d="M-2 809v195h145v57q0 77 15.5 130t43 86.5t76.5 51.5t105 24.5t139 6.5h88v-209h-51q-98 0 -125.5 -21t-27.5 -102v-24h204v-195h-204v-809h-263v809h-145zM625 809v195h145v57q0 77 15.5 130t43 86.5t76.5 51.5t105 24.5t139 6.5h88v-209h-51q-98 0 -126 -21.5 t-28 -101.5v-24h205v-195h-205v-809h-262v809h-145zM1372 0v1004h262v-1004h-262zM1372 1116v244h262v-244h-262z" />
<glyph unicode="&#xfb04;" horiz-adv-x="1753" d="M-2 809v195h145v57q0 77 15.5 130t43 86.5t76.5 51.5t105 24.5t139 6.5h88v-209h-51q-98 0 -125.5 -21t-27.5 -102v-24h204v-195h-204v-809h-263v809h-145zM625 809v195h145v57q0 77 15.5 130t43 86.5t76.5 51.5t105 24.5t139 6.5h88v-209h-51q-98 0 -126 -21.5 t-28 -101.5v-24h205v-195h-205v-809h-262v809h-145zM1372 0v1360h262v-1360h-262z" />
<glyph horiz-adv-x="0" />
<glyph horiz-adv-x="682" />
<glyph unicode=" "  horiz-adv-x="430" />
<glyph unicode="&#x09;" horiz-adv-x="430" />
<glyph unicode="&#xa0;" horiz-adv-x="430" />
<glyph unicode="!" horiz-adv-x="475" d="M96 0v285h283v-285h-283zM106 1026v334h263v-334l-43 -618h-172z" />
<glyph unicode="&#x22;" horiz-adv-x="653" d="M25 1360h278l-39 -494h-201zM344 1360h277l-37 -494h-201z" />
<glyph unicode="#" horiz-adv-x="1380" d="M16 346l25 203h264l39 287h-258l23 204h264l45 312h235l-45 -312h254l45 312h236l-45 -312h264l-25 -204h-268l-39 -287h262l-22 -203h-269l-49 -346h-235l49 346h-254l-49 -346h-236l49 346h-260zM541 549h254l39 287h-254z" />
<glyph unicode="$" horiz-adv-x="1187" d="M66 453h256q0 -125 60 -194.5t153 -82.5v418l-74 18q-60 14 -111.5 33.5t-101.5 52.5t-84.5 74t-56 100t-21.5 129q0 91 39 164t104 118t143 69.5t163 29.5v160h108v-162q205 -19 330 -143t125 -309h-256q0 110 -56 174.5t-143 77.5v-377l14 -2q59 -14 106 -29 t103.5 -38.5t98 -54.5t77.5 -71.5t55 -96.5t19 -122q0 -76 -25.5 -141t-69.5 -112.5t-104 -82t-129.5 -53.5t-144.5 -23v-159h-108v162q-212 17 -342 145.5t-127 327.5zM332 1016q0 -137 186 -182l17 -5v355q-83 -2 -143 -45.5t-60 -122.5zM643 174q97 5 162 55t65 144 q0 79 -56 123.5t-171 72.5v-395z" />
<glyph unicode="%" horiz-adv-x="1771" d="M41 973q0 188 84 294.5t244 106.5t243.5 -106.5t83.5 -294.5q0 -190 -83.5 -297t-243.5 -107t-244 107t-84 297zM229 973q0 -264 140 -264q139 0 139 264q0 136 -35 199t-104 63q-140 0 -140 -262zM274 0h271l952 1360h-270zM1075 389q0 188 84 295t244 107t244 -107 t84 -295q0 -189 -84 -296t-244 -107t-244 107t-84 296zM1264 389q0 -264 139 -264t139 264q0 136 -35 199t-104 63t-104 -63t-35 -199z" />
<glyph unicode="&#x26;" horiz-adv-x="1316" d="M18 381q0 74 27 138.5t74 112.5t103.5 82.5t121.5 57.5q-141 168 -141 309q0 137 111.5 220t283.5 83q71 0 136 -16.5t121.5 -50.5t90 -95.5t33.5 -142.5q0 -111 -72 -204.5t-186 -145.5l182 -199q44 121 47 232h260q-26 -224 -137 -414l324 -348h-350l-134 145 q-188 -170 -432 -170q-204 0 -333.5 115.5t-129.5 290.5zM287 393q0 -96 64.5 -156.5t166.5 -60.5q142 0 254 125l-293 324q-93 -38 -142.5 -97.5t-49.5 -134.5zM471 1083q0 -50 33 -101.5t90 -113.5q137 66 137 197q0 61 -37.5 95t-95.5 34q-53 0 -90 -30.5t-37 -80.5z" />
<glyph unicode="'" horiz-adv-x="327" d="M25 1360h276l-39 -494h-201z" />
<glyph unicode="(" horiz-adv-x="507" d="M35 504q0 135 24.5 268t65 242t83 193t89.5 153h240q-104 -171 -168 -390.5t-64 -465.5q0 -247 64 -467t168 -391h-240q-47 70 -89.5 154t-83 193.5t-65 242.5t-24.5 268z" />
<glyph unicode=")" horiz-adv-x="507" d="M-35 -354q104 171 168 391t64 467q0 246 -64 465.5t-168 390.5h240q47 -68 90 -152.5t83.5 -193.5t64.5 -242t24 -268t-24 -268t-64.5 -242.5t-83.5 -194t-90 -153.5h-240z" />
<glyph unicode="*" horiz-adv-x="700" d="M0 1069l61 164l185 -72v199h176v-199l188 72l64 -164l-195 -68l117 -161l-137 -103l-123 166l-113 -166l-149 101l116 161z" />
<glyph unicode="+" horiz-adv-x="1181" d="M61 393v230h412v403h238v-403h409v-230h-409v-393h-238v393h-412z" />
<glyph unicode="," horiz-adv-x="487" d="M84 -324l141 324h-129v285h295v-305l-158 -304h-149z" />
<glyph unicode="-" horiz-adv-x="794" d="M82 393v230h631v-230h-631z" />
<glyph unicode="." horiz-adv-x="475" d="M96 0v285h283v-285h-283z" />
<glyph unicode="/" horiz-adv-x="755" d="M-10 0l532 1360h244l-533 -1360h-243z" />
<glyph unicode="0" horiz-adv-x="1261" d="M76 682q0 213 61 369t187 244.5t307 88.5t307 -88.5t187 -244.5t61 -369t-61 -370t-187 -247t-307 -90t-307 90t-187 247t-61 370zM344 682q0 -247 73.5 -376.5t213.5 -129.5t213.5 129.5t73.5 376.5t-73.5 374.5t-213.5 127.5t-213.5 -127.5t-73.5 -374.5z" />
<glyph unicode="1" horiz-adv-x="702" d="M0 1012v178q58 2 92.5 4.5t74 8.5t64 17t50 29.5t44 45.5t35.5 65h199v-1360h-262v1012h-297z" />
<glyph unicode="2" horiz-adv-x="1101" d="M43 0v207q330 266 438 364q204 187 256 318q23 56 23 110q0 89 -56.5 139t-146.5 50q-99 0 -166 -65.5t-67 -209.5h-256q-3 213 137 342t366 129q199 0 327 -98t128 -272q0 -64 -21 -127.5t-66 -129t-97 -125t-134.5 -133t-155 -133.5t-181.5 -145h686v-221h-1014z" />
<glyph unicode="3" horiz-adv-x="1169" d="M41 403l248 31q21 -114 89.5 -186t188.5 -72q111 0 185.5 56t74.5 151q0 78 -47 128.5t-121.5 70.5t-177.5 20h-55v207h45q151 0 236.5 51t85.5 146q0 86 -63.5 132t-156.5 46q-114 0 -183 -66t-89 -176l-248 29q33 192 169.5 302.5t367.5 110.5q71 0 137 -13 t126.5 -41.5t105.5 -70t71.5 -104t26.5 -137.5q0 -96 -52.5 -175t-134.5 -124q105 -43 164.5 -133t59.5 -197q0 -102 -42 -182t-115.5 -130t-169 -76t-206.5 -26q-115 0 -210 35t-158.5 95.5t-102 136t-49.5 161.5z" />
<glyph unicode="4" horiz-adv-x="1206" d="M14 311v205l686 844h256v-828h236v-221h-236v-311h-260v311h-682zM301 532h395v494z" />
<glyph unicode="5" horiz-adv-x="1185" d="M80 406l248 28q17 -114 82 -186t184 -72q112 0 181 70.5t69 197.5q0 132 -76 203.5t-180 71.5q-86 0 -150 -37t-86 -90l-239 12l90 756h852v-221h-637l-37 -291q106 76 274 76q90 0 171 -31t145 -88.5t101.5 -150.5t37.5 -208q0 -111 -41 -201.5t-112 -149t-165 -89.5 t-202 -31q-117 0 -213 37.5t-157 99.5t-96.5 137t-43.5 157z" />
<glyph unicode="6" horiz-adv-x="1196" d="M76 645q0 122 18 228.5t60.5 201.5t105.5 162.5t159 107t216 39.5q108 0 195.5 -34t141.5 -89.5t84.5 -120.5t35.5 -134l-256 -2q-10 84 -70.5 132t-147.5 48q-130 0 -205 -111t-75 -303q47 59 129 95t186 36q96 0 180.5 -32t148.5 -90t101 -147t37 -196 q0 -208 -143.5 -334.5t-370.5 -126.5q-135 0 -238 50.5t-166 141.5t-94.5 211t-31.5 267zM354 438q0 -118 71.5 -190t180.5 -72t178.5 71t69.5 191q0 117 -70 189.5t-178 72.5q-109 0 -180.5 -72.5t-71.5 -189.5z" />
<glyph unicode="7" horiz-adv-x="970" d="M-6 1139v221h1014v-221q-143 -147 -236.5 -264.5t-167 -254t-111 -286t-47.5 -334.5h-288q29 612 585 1139h-749z" />
<glyph unicode="8" horiz-adv-x="1220" d="M88 387q0 222 211 340q-83 46 -126.5 128t-43.5 177q0 155 132 253.5t349 98.5t349.5 -98t132.5 -252q0 -205 -168 -307q209 -119 209 -340q0 -131 -70.5 -225.5t-187 -140.5t-265.5 -46t-265.5 46t-186.5 140.5t-70 225.5zM356 399q0 -99 69 -161t185 -62t185 62t69 161 t-69 159t-185 60t-185 -60t-69 -159zM385 1001q0 -83 62 -136.5t163 -53.5t163.5 53.5t62.5 136.5q0 82 -62 132.5t-164 50.5t-163.5 -50.5t-61.5 -132.5z" />
<glyph unicode="9" horiz-adv-x="1183" d="M63 922q0 206 141.5 334t368.5 128q113 0 202.5 -31.5t151.5 -88.5t103 -140.5t59.5 -184.5t18.5 -224q0 -120 -18.5 -226.5t-61 -201.5t-105.5 -163.5t-157.5 -108.5t-212.5 -40q-108 0 -196 34t-143 90t-86 121t-36 134l256 2q10 -84 70 -132t147 -48q130 0 205.5 111 t75.5 303q-47 -59 -126 -95t-179 -36q-132 0 -239.5 53.5t-173 160.5t-65.5 249zM330 924q0 -118 70 -191.5t178 -73.5t179.5 74t71.5 191q0 118 -71 189t-180 71t-178.5 -70.5t-69.5 -189.5z" />
<glyph unicode=":" horiz-adv-x="475" d="M96 0v285h283v-285h-283zM96 719v285h283v-285h-283z" />
<glyph unicode=";" horiz-adv-x="487" d="M84 -324l141 324h-129v285h295v-305l-158 -304h-149zM96 719v285h283v-285h-283z" />
<glyph unicode="&#x3c;" horiz-adv-x="1146" d="M61 399v217l983 420v-256l-694 -272l694 -272v-256z" />
<glyph unicode="=" horiz-adv-x="1171" d="M102 188v230h967v-230h-967zM102 590v229h967v-229h-967z" />
<glyph unicode="&#x3e;" horiz-adv-x="1146" d="M102 -20v256l695 272l-695 272v256l983 -420v-217z" />
<glyph unicode="?" horiz-adv-x="997" d="M10 932q0 206 144.5 329t369.5 123q89 0 170 -21t147.5 -61.5t106 -108t39.5 -153.5q0 -63 -19.5 -116.5t-54.5 -94t-71 -68.5t-82 -54q-54 -31 -82.5 -50.5t-56 -49t-38 -65.5t-10.5 -87v-60h-256v66q0 134 48 211t155 139q37 22 49.5 29.5t41.5 26t39.5 28t29 27 t25 31.5t12.5 33t6 40q0 73 -60.5 115.5t-142.5 42.5q-111 0 -180 -63.5t-72 -192.5zM303 0v285h283v-285h-283z" />
<glyph unicode="@" horiz-adv-x="1570" d="M76 664q0 151 57.5 284t156.5 227.5t237.5 149.5t295.5 55q112 0 211.5 -23t184.5 -71t146 -119t95.5 -172t34.5 -223q0 -112 -30 -205t-79.5 -152t-111.5 -91.5t-127 -32.5q-77 0 -129 46t-64 130q-89 -170 -288 -170q-120 0 -200.5 86t-80.5 254q0 84 27 162.5 t75.5 141t123.5 100.5t163 38q77 0 134.5 -39t84.5 -106q3 18 7.5 56.5t7.5 56.5h135l-56 -414q-6 -43 -6 -78q0 -127 86 -127q77 0 130 92t53 246q0 231 -145 356t-386 125q-173 0 -308.5 -77t-209.5 -211t-74 -300q0 -238 140 -389t378 -151q92 0 191 21t178 61l53 -133 q-93 -43 -209 -68t-213 -25q-196 0 -349 89.5t-236.5 246.5t-83.5 353zM549 635q0 -99 41.5 -149t118.5 -50q108 0 170.5 91t62.5 223q0 89 -44 137.5t-122 48.5q-102 0 -164.5 -88t-62.5 -213z" />
<glyph unicode="A" d="M0 0l514 1360h274l517 -1360h-295l-101 281h-532l-98 -281h-279zM457 502h372l-186 524z" />
<glyph unicode="B" horiz-adv-x="1263" d="M123 0v1360h536q79 0 146.5 -9t135 -33.5t114.5 -63t76.5 -102t29.5 -146.5q0 -90 -46.5 -169t-108.5 -118q44 -21 77 -44t64.5 -59.5t48 -89.5t16.5 -120q0 -87 -28 -156.5t-76 -115.5t-116.5 -76.5t-145 -44t-164.5 -13.5h-559zM395 221h301q238 0 238 185 q0 95 -61 138.5t-189 43.5h-289v-367zM395 809h281q207 0 207 170q0 80 -54.5 120t-152.5 40h-281v-330z" />
<glyph unicode="C" horiz-adv-x="1368" d="M76 686q0 326 175 512t478 186q240 0 396 -124.5t196 -337.5l-260 -39q-29 145 -121 214.5t-219 69.5q-159 0 -261 -125t-102 -356q0 -238 101 -365.5t258 -127.5q131 0 223 69.5t121 214.5l260 -39q-41 -211 -198.5 -337t-401.5 -126q-306 0 -475.5 189.5t-169.5 521.5z " />
<glyph unicode="D" horiz-adv-x="1333" d="M123 0v1360h348q139 0 251 -18t215.5 -64.5t173 -121.5t110.5 -195.5t41 -280.5t-41 -280.5t-110.5 -195.5t-173 -121.5t-215.5 -64.5t-251 -18h-348zM395 221h62q61 0 109 3.5t104 15t98.5 31.5t84 54.5t68 82t42.5 117t16 155.5t-16 155.5t-42.5 117t-68 82t-84 54.5 t-98.5 31.5t-104 15t-109 3.5h-62v-918z" />
<glyph unicode="E" horiz-adv-x="1173" d="M123 0v1360h1005v-221h-733v-332h692v-221h-692v-365h733v-221h-1005z" />
<glyph unicode="F" horiz-adv-x="1128" d="M123 0v1360h1005v-221h-733v-332h692v-221h-692v-586h-272z" />
<glyph unicode="G" horiz-adv-x="1445" d="M76 686q0 322 180.5 510t495.5 188q236 0 392.5 -122t196.5 -316l-260 -39q-31 130 -120 195t-211 65q-180 0 -286 -120.5t-106 -360.5q0 -242 104 -367.5t286 -125.5q61 0 118 15.5t109.5 47.5t84.5 91.5t32 139.5v23h-344v223h595v-733h-215l-8 162q-60 -87 -166 -137 t-247 -50q-292 0 -461.5 190.5t-169.5 520.5z" />
<glyph unicode="H" horiz-adv-x="1409" d="M123 0v1360h272v-553h619v553h272v-1360h-272v586h-619v-586h-272z" />
<glyph unicode="I" horiz-adv-x="518" d="M123 0v1360h272v-1360h-272z" />
<glyph unicode="J" horiz-adv-x="620" d="M35 0v227h28q103 0 132.5 22.5t29.5 108.5v1002h273v-1010q0 -204 -72.5 -277t-273.5 -73h-117z" />
<glyph unicode="K" horiz-adv-x="1296" d="M123 0v1360h272v-615l563 615h318l-506 -543l545 -817h-322l-405 621l-193 -207v-414h-272z" />
<glyph unicode="L" horiz-adv-x="1067" d="M123 0v1360h272v-1139h672v-221h-944z" />
<glyph unicode="M" horiz-adv-x="1701" d="M123 0v1360h420l317 -1016l305 1016h414v-1360h-272v1004l-320 -1004h-270l-322 1004v-1004h-272z" />
<glyph unicode="N" horiz-adv-x="1409" d="M123 0v1360h362l529 -1032v1032h272v-1360h-362l-529 1032v-1032h-272z" />
<glyph unicode="O" horiz-adv-x="1486" d="M76 686q0 325 179 511.5t488 186.5q310 0 489 -186.5t179 -511.5q0 -326 -180 -518.5t-488 -192.5t-487.5 192.5t-179.5 518.5zM358 686q0 -238 108 -365.5t277 -127.5q170 0 277.5 127.5t107.5 365.5t-106.5 359.5t-278.5 121.5q-171 0 -278 -121.5t-107 -359.5z" />
<glyph unicode="P" horiz-adv-x="1177" d="M123 0v1360h455q69 0 123 -3.5t118 -14.5t112 -30.5t95 -54t77.5 -81.5t49 -116.5t18.5 -156.5q0 -103 -31 -180.5t-83 -126t-129 -78.5t-159 -41.5t-183 -11.5h-185v-465h-278zM401 684h189q54 0 96 5t82 19t66 37.5t41.5 63t15.5 92.5q0 65 -20 111t-49 70t-76 37.5 t-84.5 16.5t-92.5 3h-168v-455z" />
<glyph unicode="Q" horiz-adv-x="1486" d="M76 686q0 325 179 511.5t488 186.5q310 0 489 -186.5t179 -511.5q0 -188 -61 -334t-176 -239l161 -213l-168 -127l-182 239q-110 -37 -242 -37q-308 0 -487.5 192.5t-179.5 518.5zM358 686q0 -238 108 -365.5t277 -127.5q43 0 95 10l-103 137l168 129l115 -154 q110 129 110 371q0 238 -106.5 359.5t-278.5 121.5q-171 0 -278 -121.5t-107 -359.5z" />
<glyph unicode="R" horiz-adv-x="1267" d="M123 0v1360h418q341 0 492 -95.5t151 -312.5q0 -119 -63.5 -212t-190.5 -146l317 -594h-309l-283 539h-55h-199v-539h-278zM401 758h199q159 0 231 45.5t72 146.5q0 58 -22.5 96.5t-68 58t-98.5 27t-128 7.5h-185v-381z" />
<glyph unicode="S" horiz-adv-x="1239" d="M43 426l262 35q56 -268 340 -268q51 0 96 9t86 29t64.5 57.5t23.5 88.5q0 34 -12.5 60.5t-33 45.5t-54 34.5t-68.5 25.5t-83 20l-181 37q-86 18 -155.5 48t-125.5 76.5t-87 115.5t-31 155q0 79 31.5 145t84 110.5t121.5 75t142.5 44.5t148.5 14q219 0 374 -105t194 -296 l-262 -35q-13 59 -44.5 102.5t-76.5 68t-95 36.5t-106 12q-58 0 -110 -15t-91 -53.5t-39 -94.5q0 -126 189 -166l180 -37q76 -15 135 -32.5t124 -50t107.5 -74t70.5 -106t28 -145.5t-30 -150t-82 -118t-122 -83t-150 -50.5t-167 -16.5q-253 0 -408 121.5t-188 329.5z" />
<glyph unicode="T" horiz-adv-x="1142" d="M10 1139v221h1123v-221h-426v-1139h-273v1139h-424z" />
<glyph unicode="U" horiz-adv-x="1347" d="M102 584v776h273v-778q0 -99 12 -165t43.5 -119.5t92.5 -79t153 -25.5q74 0 127 17.5t85.5 48.5t51.5 81.5t26 107t7 134.5v778h272v-776q0 -228 -59.5 -361t-181.5 -190.5t-328 -57.5t-329.5 57.5t-184 191t-60.5 360.5z" />
<glyph unicode="V" horiz-adv-x="1212" d="M-10 1360h295l329 -1020l320 1020h289l-475 -1360h-279z" />
<glyph unicode="W" horiz-adv-x="1675" d="M0 1360h295l192 -985l193 985h317l211 -991l178 991h289l-307 -1360h-321l-209 987l-209 -987h-322z" />
<glyph unicode="X" horiz-adv-x="1269" d="M-31 0l506 696l-473 664h328l311 -436l317 436h310l-475 -651l507 -709h-327l-344 483l-353 -483h-307z" />
<glyph unicode="Y" horiz-adv-x="1236" d="M-20 1360h317l321 -578l328 578h311l-507 -848v-512h-273v516z" />
<glyph unicode="Z" horiz-adv-x="1183" d="M37 0v213l745 915h-686v232h1022v-213l-743 -916h764v-231h-1102z" />
<glyph unicode="[" horiz-adv-x="587" d="M119 -354v1714h489v-191h-256v-1331h256v-192h-489z" />
<glyph unicode="\" horiz-adv-x="755" d="M-10 1360h243l533 -1360h-244z" />
<glyph unicode="]" horiz-adv-x="587" d="M-20 -162h256v1331h-256v191h489v-1714h-489v192z" />
<glyph unicode="^" horiz-adv-x="1056" d="M41 623l379 737h217l379 -737h-256l-232 475l-231 -475h-256z" />
<glyph unicode="_" horiz-adv-x="933" d="M41 0h852v-229h-852v229z" />
<glyph unicode="`" horiz-adv-x="798" d="M174 1360h299l180 -242h-194z" />
<glyph unicode="a" horiz-adv-x="1073" d="M59 303q0 136 95 211q61 48 152 74.5t226 40.5l185 20v35q0 85 -46 121.5t-136 36.5q-88 0 -140.5 -38t-58.5 -114l-242 8q13 150 129 242t324 92q225 0 329 -94q102 -91 101 -282v-11q0 -21 -3 -139.5t-3 -173.5q0 -171 20 -332h-241l-7 109q-50 -70 -125.5 -102 t-191.5 -32q-166 0 -266.5 97t-100.5 231zM326 305q0 -58 42.5 -96.5t116.5 -38.5q102 0 170 61t68 177v61l-178 -20q-116 -13 -167.5 -48.5t-51.5 -95.5z" />
<glyph unicode="b" horiz-adv-x="1144" d="M119 0v1360h262v-457q94 123 274 123q194 0 316.5 -141.5t122.5 -384.5q0 -237 -129 -381t-326 -144q-162 0 -262 115l-4 -90h-254zM371 500q0 -149 62.5 -236.5t170.5 -87.5q105 0 164 90t59 236t-59 234.5t-164 88.5q-109 0 -171 -87t-62 -238z" />
<glyph unicode="c" horiz-adv-x="1075" d="M51 500q0 237 135 381.5t371 144.5q171 0 299.5 -87.5t169.5 -262.5l-248 -37q-15 81 -71 133.5t-152 52.5q-108 0 -173 -83t-65 -240q0 -156 66 -241t172 -85q191 0 229 193l250 -35q-30 -121 -105 -204t-170 -119t-208 -36q-234 0 -367 144.5t-133 380.5z" />
<glyph unicode="d" horiz-adv-x="1144" d="M51 502q0 237 129 380.5t326 143.5q158 0 258 -115v449h262v-1360h-252l-2 106q-94 -131 -283 -131q-194 0 -316 142t-122 385zM317 500q0 -146 59.5 -235t164.5 -89q109 0 171 87.5t62 238.5q0 148 -62.5 235.5t-170.5 87.5q-105 0 -164.5 -89.5t-59.5 -235.5z" />
<glyph unicode="e" horiz-adv-x="1112" d="M51 502q0 232 139 378t369 146q245 0 379 -164q122 -150 122 -395q0 -22 -1 -45h-748q4 -110 73.5 -178t176.5 -68q93 0 153 41t83 107l245 -33q-15 -44 -40 -86.5t-66.5 -85t-93 -74t-123.5 -51t-154 -19.5q-165 0 -283 71.5t-174.5 189t-56.5 266.5zM311 604h486 q-2 60 -24 106t-57.5 72.5t-76.5 40t-86 13.5q-95 0 -165.5 -57t-76.5 -175z" />
<glyph unicode="f" horiz-adv-x="626" d="M-2 809v195h145v57q0 77 15.5 130t43 86.5t76.5 51.5t105 24.5t139 6.5h88v-209h-51q-98 0 -125.5 -21t-27.5 -102v-24h204v-195h-204v-809h-263v809h-145z" />
<glyph unicode="g" horiz-adv-x="1144" d="M51 522q0 223 129.5 363.5t325.5 140.5q162 0 262 -115l4 93h254v-904q0 -247 -129 -358q-113 -102 -356 -102q-86 0 -158.5 16.5t-134.5 52.5t-102.5 100t-53.5 152l250 10q13 -71 63.5 -101t143.5 -30q104 0 153 39q62 49 62 172v88q-94 -123 -275 -123 q-193 0 -315.5 138.5t-122.5 367.5zM317 520q0 -143 58.5 -223t165.5 -80q110 0 171.5 78t61.5 227q0 134 -63 218.5t-170 84.5q-104 0 -164 -86.5t-60 -218.5z" />
<glyph unicode="h" horiz-adv-x="1134" d="M119 0v1360h262v-471q43 67 121.5 102t175.5 35q194 0 283 -117q71 -92 71 -284v-625h-262v567q0 135 -37 187q-45 61 -141 61q-62 0 -105 -23.5t-65.5 -68t-31.5 -95t-9 -116.5v-512h-262z" />
<glyph unicode="i" horiz-adv-x="499" d="M119 0v1004h262v-1004h-262zM119 1116v244h262v-244h-262z" />
<glyph unicode="j" horiz-adv-x="501" d="M-18 -143h34q71 0 87 24t16 111v1012h262v-1016q0 -110 -14.5 -175t-55.5 -103.5t-100.5 -51t-161.5 -12.5h-67v211zM119 1116v244h262v-244h-262z" />
<glyph unicode="k" horiz-adv-x="1056" d="M119 0v1360h262v-735l358 379h310l-363 -379l385 -625h-301l-264 436l-125 -131v-305h-262z" />
<glyph unicode="l" horiz-adv-x="499" d="M119 0v1360h262v-1360h-262z" />
<glyph unicode="m" horiz-adv-x="1740" d="M119 0v1004h262v-115q88 137 287 137q206 0 290 -156q61 79 141.5 117.5t194.5 38.5q186 0 271 -108q73 -94 73 -293v-625h-262v575q0 133 -30 179q-39 61 -138 61q-51 0 -88 -17.5t-57.5 -43.5t-32 -68.5t-15 -81.5t-3.5 -92v-512h-262v575q0 134 -35 183 q-41 57 -133 57q-51 0 -88.5 -17t-58.5 -44t-33.5 -68.5t-16.5 -81.5t-4 -92v-512h-262z" />
<glyph unicode="n" horiz-adv-x="1134" d="M119 0v1004h262v-115q43 67 121.5 102t175.5 35q194 0 283 -117q71 -92 71 -284v-625h-262v567q0 135 -37 187q-45 61 -141 61q-62 0 -105 -23.5t-65.5 -68t-31.5 -95t-9 -116.5v-512h-262z" />
<glyph unicode="o" horiz-adv-x="1110" d="M51 500q0 131 41 233.5t111.5 165t160 95t191.5 32.5t191.5 -32.5t160 -95t111.5 -165t41 -233.5t-41 -233.5t-111.5 -165t-160 -94.5t-191.5 -32t-191.5 32t-160 94.5t-111.5 165t-41 233.5zM317 500q0 -152 64 -238t174 -86t174 86t64 238q0 154 -64 239.5t-174 85.5 t-174 -85.5t-64 -239.5z" />
<glyph unicode="p" horiz-adv-x="1144" d="M119 -354v1358h254v-109q94 131 282 131q194 0 316.5 -141.5t122.5 -384.5q0 -237 -129 -381t-326 -144q-158 0 -258 115v-444h-262zM371 500q0 -149 62.5 -236.5t170.5 -87.5q105 0 164 90t59 236t-59 234.5t-164 88.5q-109 0 -171 -87t-62 -238z" />
<glyph unicode="q" horiz-adv-x="1144" d="M51 502q0 237 129 380.5t326 143.5q162 0 262 -115l4 93h254v-1358h-262v452q-94 -123 -275 -123q-194 0 -316 142t-122 385zM317 500q0 -146 59.5 -235t164.5 -89q109 0 171 87.5t62 238.5q0 148 -62.5 235.5t-170.5 87.5q-105 0 -164.5 -89.5t-59.5 -235.5z" />
<glyph unicode="r" horiz-adv-x="720" d="M119 0v1004h258v-158q88 155 270 155q26 0 58 -4v-247q-55 6 -109 6q-106 0 -160.5 -52t-54.5 -188v-516h-262z" />
<glyph unicode="s" horiz-adv-x="1007" d="M39 311l248 37q10 -78 71 -130t162 -52q185 0 185 110q0 27 -12.5 46.5t-40.5 32.5t-52.5 20t-69.5 16l-133 29q-163 35 -248.5 105.5t-85.5 201.5q0 135 123 217t306 82q105 0 198.5 -31.5t165 -103t90.5 -172.5l-237 -33q-14 67 -77 109.5t-157 42.5 q-73 0 -121.5 -25.5t-48.5 -67.5q0 -77 150 -108l118 -27q76 -17 124 -30t103 -37.5t86 -53.5t51.5 -75t20.5 -105q0 -104 -63 -181t-164 -115t-223 -38q-194 0 -322 93t-147 243z" />
<glyph unicode="t" horiz-adv-x="679" d="M10 809v195h146v299h262v-299h213v-195h-213v-481q0 -75 28.5 -100t100.5 -25h80v-203h-193q-88 0 -142 13.5t-84.5 48.5t-41 84t-10.5 130v533h-146z" />
<glyph unicode="u" horiz-adv-x="1128" d="M104 377v627h263v-578q0 -68 6.5 -109t27.5 -69q45 -62 138 -62q51 0 88.5 17.5t60.5 45.5t36.5 70t18.5 85t5 96v504h262v-1004h-262v113q-44 -66 -121.5 -102t-171.5 -36q-186 0 -275 111q-76 91 -76 291z" />
<glyph unicode="v" horiz-adv-x="974" d="M0 1004h289l207 -676l204 676h275l-346 -1004h-277z" />
<glyph unicode="w" horiz-adv-x="1396" d="M0 1004h285l118 -689l160 689h268l162 -687l119 687h285l-250 -1004h-262l-187 694l-188 -694h-262z" />
<glyph unicode="x" horiz-adv-x="1034" d="M0 0l371 506l-351 498h306l200 -285l207 285h283l-352 -482l370 -522h-307l-219 309l-225 -309h-283z" />
<glyph unicode="y" horiz-adv-x="958" d="M-25 1004h287l213 -678l217 678h266l-354 -973q-31 -86 -54.5 -140t-52 -101t-56 -71.5t-67.5 -42.5t-86 -24t-112 -6h-110v217h98q69 0 103.5 22t68.5 97l10 22z" />
<glyph unicode="z" horiz-adv-x="948" d="M41 0v195l539 614h-494v195h807v-195l-539 -614h555v-195h-868z" />
<glyph unicode="{" horiz-adv-x="591" d="M0 399v209q88 0 116.5 48t28.5 149v225q0 99 21.5 163t70.5 101t116.5 51.5t170.5 14.5h68v-209h-31q-93 0 -123 -29.5t-30 -105.5v-250q0 -122 -47.5 -179.5t-133.5 -80.5v-4q86 -23 133.5 -80.5t47.5 -179.5v-252q0 -76 30 -105.5t123 -29.5h31v-209h-68 q-103 0 -170.5 14.5t-116.5 51t-70.5 100.5t-21.5 163v228q0 101 -28.5 148.5t-116.5 47.5z" />
<glyph unicode="|" horiz-adv-x="456" d="M119 -170v1530h219v-1530h-219z" />
<glyph unicode="}" horiz-adv-x="591" d="M0 -145h31q93 0 123 29.5t30 105.5v252q0 122 47.5 179.5t133.5 80.5v4q-86 23 -133.5 80.5t-47.5 179.5v250q0 76 -30 105.5t-123 29.5h-31v209h68q103 0 170.5 -14.5t116 -51.5t70 -101t21.5 -163v-225q0 -101 29 -149t117 -48v-209q-88 0 -117 -47.5t-29 -148.5v-228 q0 -99 -21.5 -163t-70 -100.5t-116 -51t-170.5 -14.5h-68v209z" />
<glyph unicode="~" horiz-adv-x="1017" d="M41 330q13 356 285 356q54 0 108.5 -20.5t91 -45t79.5 -45t77 -20.5q51 0 79.5 30t29.5 101h186q-13 -356 -285 -356q-47 0 -97.5 20.5t-88 45t-84.5 45t-86 20.5q-51 0 -79.5 -30t-29.5 -101h-186z" />
<glyph unicode="&#xa1;" horiz-adv-x="475" d="M96 737v267h283v-267h-283zM106 -20l44 618h172l47 -618v-334h-263v334z" />
<glyph unicode="&#xa2;" horiz-adv-x="1075" d="M51 500q0 220 117.5 361t325.5 161v158h96v-156q161 -8 279 -95t157 -253l-248 -37q-13 74 -61 126t-127 58v-647q70 5 122.5 51t71.5 142l250 -35q-42 -170 -162.5 -258.5t-281.5 -98.5v-147h-96v147q-209 18 -326 159.5t-117 363.5zM317 502q0 -133 48 -216t129 -104 v637q-82 -21 -129.5 -103t-47.5 -214z" />
<glyph unicode="&#xa3;" horiz-adv-x="1114" d="M20 612v144h166q-28 51 -44.5 86.5t-31 90t-14.5 107.5q0 87 42 155t113 108t156.5 60.5t180.5 20.5q241 0 374 -128.5t130 -348.5h-256q0 146 -68 211.5t-180 65.5q-94 0 -160 -48t-66 -122q0 -43 16 -92.5t32 -80t47 -85.5h321v-144h-252q19 -63 19 -98 q0 -157 -168 -281l2 -4q66 27 125 27q45 0 126.5 -24.5t139.5 -24.5q94 0 246 59l76 -211q-60 -33 -148 -57.5t-164 -24.5q-65 0 -195 43t-198 43q-104 0 -254 -84l-94 187q129 65 188.5 138.5t59.5 205.5q0 44 -25 106h-242z" />
<glyph unicode="&#xa4;" horiz-adv-x="1210" d="M102 262l131 133q-83 116 -83 264q0 149 83 265l-131 133l95 92l129 -129q121 94 274 94q154 0 281 -96l133 131l94 -92l-135 -135q82 -119 82 -263q0 -143 -84 -260l137 -137l-94 -92l-135 133q-124 -94 -279 -94q-152 0 -272 90l-131 -129zM360 659q0 -107 67.5 -180 t170.5 -73q109 0 179.5 73t70.5 180q0 110 -70.5 185.5t-179.5 75.5q-103 0 -170.5 -75.5t-67.5 -185.5z" />
<glyph unicode="&#xa5;" horiz-adv-x="1277" d="M0 1360h309l330 -598l336 598h303l-426 -705h270v-168h-356v-151h356v-168h-356v-168h-264v168h-346v168h346v151h-346v168h262z" />
<glyph unicode="&#xa6;" horiz-adv-x="456" d="M119 -170v582h219v-582h-219zM119 778v582h219v-582h-219z" />
<glyph unicode="&#xa7;" horiz-adv-x="1165" d="M61 604q0 80 50 147t135 113q-88 94 -88 219q0 93 62 163.5t154.5 104t198.5 33.5q183 0 303 -92.5t140 -257.5l-242 -4q-12 76 -67 121t-140 45q-74 0 -117.5 -27.5t-43.5 -70.5q0 -50 35 -84.5t110 -71.5l258 -131q150 -76 222.5 -150t72.5 -180q0 -86 -52.5 -155.5 t-146.5 -116.5q96 -96 96 -225q0 -159 -123 -255t-305 -96q-193 0 -317.5 109.5t-134.5 298.5l241 4q32 -223 220 -223q73 0 120.5 37.5t47.5 99.5q0 58 -38.5 97t-133.5 87l-242 121q-275 138 -275 340zM307 631q0 -51 36.5 -85.5t109.5 -72.5l254 -129l43 -25 q100 54 100 125q0 48 -42 86t-136 86l-273 138q-92 -44 -92 -123z" />
<glyph unicode="&#xa8;" horiz-adv-x="716" d="M20 1124v226h220v-226h-220zM477 1124v226h219v-226h-219z" />
<glyph unicode="&#xa9;" horiz-adv-x="1570" d="M82 678q0 204 94.5 366.5t255 251t354.5 88.5q144 0 273 -52.5t224 -144t150.5 -224t55.5 -285.5q0 -204 -95 -366t-255 -249.5t-353 -87.5q-195 0 -355 87.5t-254.5 249.5t-94.5 366zM238 678q0 -247 156.5 -404t391.5 -157q237 0 392 156.5t155 404.5q0 165 -71.5 294 t-195.5 199t-280 70q-154 0 -278.5 -70t-197 -199t-72.5 -294zM406 680q0 172 105 277.5t277 105.5q139 0 239.5 -76t125.5 -196l-192 -50q-8 68 -56 114t-117 46q-76 0 -126 -58.5t-50 -162.5t49 -163.5t127 -59.5q69 0 117 35t62 108l194 -45q-33 -117 -134.5 -189.5 t-244.5 -72.5q-174 0 -275 107.5t-101 279.5z" />
<glyph unicode="&#xaa;" horiz-adv-x="663" d="M45 973q0 78 53 121q59 48 236 67l84 8v17q0 71 -90 71t-95 -69l-170 2q9 92 80 143t201 51t191.5 -54t60.5 -171q0 -16 -1 -76t-1 -73q0 -99 12 -213h-168l-2 63q-51 -78 -178 -78q-97 0 -155 56t-58 135zM229 979q0 -28 20.5 -47t57.5 -19q50 0 82.5 27.5t32.5 79.5v35 l-86 -8q-107 -11 -107 -68z" />
<glyph unicode="&#xab;" horiz-adv-x="1017" d="M20 500l302 436h237l-237 -436l237 -439h-237zM438 500l303 436h236l-238 -436l238 -439h-236z" />
<glyph unicode="&#xac;" horiz-adv-x="1218" d="M41 586v229h1059v-639h-238v410h-821z" />
<glyph unicode="&#xad;" horiz-adv-x="794" d="M82 393v230h631v-230h-631z" />
<glyph unicode="&#xae;" horiz-adv-x="1570" d="M82 678q0 204 94.5 366.5t255 251t354.5 88.5q144 0 273 -52.5t224 -144t150.5 -224t55.5 -285.5q0 -204 -95 -366t-255 -249.5t-353 -87.5q-195 0 -355 87.5t-254.5 249.5t-94.5 366zM238 678q0 -247 156.5 -404t391.5 -157q237 0 392 156.5t155 404.5q0 165 -71.5 294 t-195.5 199t-280 70q-154 0 -278.5 -70t-197 -199t-72.5 -294zM465 328v749h299q63 0 113 -6.5t95 -23.5t75 -44t47.5 -70.5t17.5 -101.5q0 -152 -137 -204l182 -299h-225l-158 268h-10h-98v-268h-201zM666 752h149q47 0 70.5 22t23.5 57q0 36 -24 63.5t-70 27.5h-149v-170z " />
<glyph unicode="&#xaf;" horiz-adv-x="677" d="M41 1143v180h596v-180h-596z" />
<glyph unicode="&#xb0;" horiz-adv-x="641" d="M14 1077q0 127 89.5 217t215.5 90q128 0 218 -90t90 -217q0 -126 -90.5 -215.5t-217.5 -89.5q-126 0 -215.5 89.5t-89.5 215.5zM180 1077q0 -63 39 -106t100 -43q62 0 103 43.5t41 105.5q0 64 -41 108t-103 44q-61 0 -100 -44t-39 -108z" />
<glyph unicode="&#xb1;" horiz-adv-x="1263" d="M102 0v229h1059v-229h-1059zM102 537v229h410v238h242v-238h407v-229h-407v-242h-242v242h-410z" />
<glyph unicode="&#xb2;" horiz-adv-x="679" d="M35 834v145q28 22 79.5 61t82.5 63t74.5 59t69.5 61.5t51.5 57t37.5 58.5t12 54q0 46 -27.5 70t-72.5 24q-53 0 -88.5 -37.5t-36.5 -112.5h-176q0 133 84 210t227 77q122 0 199.5 -57t77.5 -162q0 -55 -23 -105.5t-76 -104.5t-105.5 -96.5t-145.5 -109.5h356v-155h-600z " />
<glyph unicode="&#xb3;" horiz-adv-x="724" d="M41 1073l176 19q9 -64 45.5 -99t97.5 -35q57 0 91 26.5t34 70.5q0 104 -172 104h-32v146h30q74 0 114 24.5t40 71.5q0 40 -31 62t-76 22q-56 0 -91 -31.5t-42 -89.5l-176 20q18 112 100.5 176t223.5 64q120 0 199 -55.5t79 -155.5q0 -58 -29 -102.5t-75 -67.5 q60 -23 93.5 -72t33.5 -114q0 -113 -90.5 -175.5t-225.5 -62.5q-137 0 -221.5 72.5t-95.5 181.5z" />
<glyph unicode="&#xb4;" horiz-adv-x="561" d="M41 1118l180 242h299l-284 -242h-195z" />
<glyph unicode="&#xb5;" horiz-adv-x="1120" d="M96 -354q23 144 23 327v1031h233v-510q0 -64 11 -119t34.5 -100t64.5 -71t97 -26t97 26t64.5 71t34.5 100t11 119v510h235v-1004h-235v111q-73 -123 -207 -123q-138 0 -207 123v-127q0 -203 -22 -338h-234z" />
<glyph unicode="&#xb6;" horiz-adv-x="958" d="M0 1034q0 152 118.5 239t315.5 87h406v-1530h-156v1384h-213v-1384h-156v881q-57 6 -108.5 25t-100 55t-77.5 98.5t-29 144.5z" />
<glyph unicode="&#xb7;" horiz-adv-x="475" d="M96 377v266h283v-266h-283z" />
<glyph unicode="&#xb8;" horiz-adv-x="485" d="M41 -336l33 86q54 -26 110 -26q107 0 107 55q0 26 -20.5 39.5t-55.5 13.5q-47 0 -74 -16l-57 32l98 158h101l-62 -98q35 6 76 6q63 -2 105 -37.5t42 -91.5q0 -72 -65.5 -114t-155.5 -42q-106 0 -182 35z" />
<glyph unicode="&#xb9;" horiz-adv-x="464" d="M18 1374v129q96 3 141.5 25.5t71.5 83.5h142v-778h-183v540h-172z" />
<glyph unicode="&#xba;" horiz-adv-x="692" d="M45 1083q0 148 85.5 224.5t215.5 76.5t216.5 -77t86.5 -224q0 -146 -86.5 -222.5t-216.5 -76.5t-215.5 76.5t-85.5 222.5zM233 1083q0 -78 30.5 -118.5t82.5 -40.5q54 0 84.5 40.5t30.5 118.5q0 80 -30.5 121t-84.5 41q-53 0 -83 -41t-30 -121z" />
<glyph unicode="&#xbb;" horiz-adv-x="1017" d="M41 61l235 439l-235 436h233l304 -436l-304 -439h-233zM457 61l237 439l-237 436h237l303 -436l-303 -439h-237z" />
<glyph unicode="&#xbc;" horiz-adv-x="1771" d="M190 1124v129q96 3 141.5 25.5t71.5 83.5h142v-778h-183v540h-172zM274 0l953 1360h270l-952 -1360h-271zM1059 164v143l393 469h168v-454h127v-158h-127v-164h-184v164h-377zM1247 322h189v227z" />
<glyph unicode="&#xbd;" horiz-adv-x="1771" d="M190 1124v129q96 3 141.5 25.5t71.5 83.5h142v-778h-183v540h-172zM274 0l953 1360h270l-952 -1360h-271zM1102 0v145q28 22 79.5 61t82.5 63t74.5 59t69.5 61.5t51.5 57t37.5 58.5t12 54q0 46 -27.5 70t-72.5 24q-54 0 -89 -37t-36 -112h-176q0 133 84 210t227 77 q122 0 199.5 -57.5t77.5 -162.5q0 -45 -17.5 -88t-44 -79t-76.5 -81t-94 -79t-118 -88h356v-156h-600z" />
<glyph unicode="&#xbe;" horiz-adv-x="1771" d="M51 823l176 19q9 -64 46 -98.5t98 -34.5q57 0 91 26t34 70q0 104 -172 104h-33v146h31q74 0 113.5 24.5t39.5 71.5q0 40 -31 62t-75 22q-56 0 -91 -31.5t-42 -89.5l-177 21q18 112 100.5 175.5t223.5 63.5q120 0 199.5 -55.5t79.5 -155.5q0 -58 -29 -102.5t-76 -67.5 q60 -23 93.5 -72t33.5 -114q0 -113 -90 -175.5t-225 -62.5q-137 0 -222 72.5t-96 181.5zM274 0h271l952 1360h-270zM1059 164h377v-164h184v164h127v158h-127v454h-168l-393 -469v-143zM1247 322l189 227v-227h-189z" />
<glyph unicode="&#xbf;" horiz-adv-x="997" d="M18 -35q0 206 228 334q43 25 67.5 40.5t50.5 38t38.5 45.5t21 55t8.5 73v59h256v-65q0 -134 -48 -211t-155 -139q-59 -35 -84 -51t-59 -44.5t-46.5 -56.5t-12.5 -63q0 -73 60 -115.5t142 -42.5q111 0 180 63.5t72 192.5l258 -4q0 -206 -144.5 -329.5t-369.5 -123.5 q-89 0 -170 21t-147.5 61.5t-106 108t-39.5 153.5zM420 739v267h282v-267h-282z" />
<glyph unicode="&#xc0;" d="M0 0l514 1360h274l517 -1360h-295l-101 281h-532l-98 -281h-279zM328 1645h321l197 -215h-215zM457 502h372l-186 524z" />
<glyph unicode="&#xc1;" d="M0 0l514 1360h274l517 -1360h-295l-101 281h-532l-98 -281h-279zM416 1430l196 215h322l-303 -215h-215zM457 502h372l-186 524z" />
<glyph unicode="&#xc2;" d="M0 0l514 1360h274l517 -1360h-295l-101 281h-532l-98 -281h-279zM266 1430l266 215h228l260 -215h-250l-125 94l-131 -94h-248zM457 502h372l-186 524z" />
<glyph unicode="&#xc3;" d="M0 0l514 1360h274l517 -1360h-295l-101 281h-532l-98 -281h-279zM260 1419q10 60 33.5 105.5t50.5 70.5t61 40.5t61 20.5t54 5q51 0 92 -19.5t75 -39t67 -19.5q78 0 94 78h178q-10 -60 -33.5 -105.5t-50.5 -70.5t-61 -40.5t-61 -20.5t-54 -5q-51 0 -94 19.5t-77.5 39 t-64.5 19.5q-76 0 -92 -78h-178zM457 502h372l-186 524z" />
<glyph unicode="&#xc4;" d="M0 0l514 1360h274l517 -1360h-295l-101 281h-532l-98 -281h-279zM309 1430v215h219v-215h-219zM457 502h372l-186 524zM766 1430v215h219v-215h-219z" />
<glyph unicode="&#xc5;" d="M0 0l514 1360h274l517 -1360h-295l-101 281h-532l-98 -281h-279zM457 502h372l-186 524zM475 1573q0 70 50 116t122 46t122 -46t50 -116t-49.5 -116t-122.5 -46t-122.5 46t-49.5 116zM565 1573q0 -34 24.5 -57t57.5 -23t57.5 23t24.5 57q0 35 -24.5 58.5t-57.5 23.5 t-57.5 -23.5t-24.5 -58.5z" />
<glyph unicode="&#xc6;" horiz-adv-x="1884" d="M-82 0l916 1360h1005v-221h-733v-324h692v-221h-692v-373h733v-221h-1005v281h-447l-182 -281h-287zM532 502h302v461z" />
<glyph unicode="&#xc7;" horiz-adv-x="1368" d="M76 686q0 326 175 512t478 186q240 0 396 -124.5t196 -337.5l-260 -39q-29 145 -121 214.5t-219 69.5q-159 0 -261 -125t-102 -356q0 -238 101 -365.5t258 -127.5q131 0 223 69.5t121 214.5l260 -39q-41 -211 -198.5 -337t-401.5 -126h-8l-41 -67q35 6 76 6 q63 -2 105 -37.5t42 -91.5q0 -72 -65.5 -114t-155.5 -42q-106 0 -182 35l32 86q54 -26 111 -26q106 0 106 55q0 26 -20 39.5t-55 13.5q-47 0 -74 -16l-57 32l81 134q-257 31 -398.5 216.5t-141.5 487.5z" />
<glyph unicode="&#xc8;" horiz-adv-x="1173" d="M123 0v1360h1005v-221h-733v-332h692v-221h-692v-365h733v-221h-1005zM276 1645h322l197 -215h-215z" />
<glyph unicode="&#xc9;" horiz-adv-x="1173" d="M123 0v1360h1005v-221h-733v-332h692v-221h-692v-365h733v-221h-1005zM449 1430l196 215h322l-303 -215h-215z" />
<glyph unicode="&#xca;" horiz-adv-x="1173" d="M123 0v1360h1005v-221h-733v-332h692v-221h-692v-365h733v-221h-1005zM274 1430l267 215h227l260 -215h-250l-125 94l-131 -94h-248z" />
<glyph unicode="&#xcb;" horiz-adv-x="1173" d="M123 0v1360h1005v-221h-733v-332h692v-221h-692v-365h733v-221h-1005zM297 1430v215h219v-215h-219zM754 1430v215h219v-215h-219z" />
<glyph unicode="&#xcc;" horiz-adv-x="518" d="M-127 1645h322l196 -215h-215zM123 0v1360h272v-1360h-272z" />
<glyph unicode="&#xcd;" horiz-adv-x="518" d="M123 0v1360h272v-1360h-272zM131 1430l197 215h321l-303 -215h-215z" />
<glyph unicode="&#xce;" horiz-adv-x="518" d="M-78 1430l225 215h228l219 -215h-250l-84 94l-90 -94h-248zM123 0v1360h272v-1360h-272z" />
<glyph unicode="&#xcf;" horiz-adv-x="518" d="M-41 1430v215h219v-215h-219zM123 0v1360h272v-1360h-272zM340 1430v215h219v-215h-219z" />
<glyph unicode="&#xd0;" horiz-adv-x="1372" d="M0 586v221h164v553h348q139 0 251 -18t215 -64.5t171.5 -121.5t109.5 -195.5t41 -280.5t-41 -280.5t-109.5 -195.5t-171.5 -121.5t-215 -64.5t-251 -18h-348v586h-164zM436 221h62q60 0 108.5 3.5t104.5 15t98 31.5t83 54.5t67.5 82t42.5 117t16 155.5t-16 155.5 t-42.5 117t-67.5 82t-83 54.5t-98 31.5t-104.5 15t-108.5 3.5h-62v-332h244v-221h-244v-365z" />
<glyph unicode="&#xd1;" horiz-adv-x="1409" d="M123 0v1360h362l529 -1032v1032h272v-1360h-362l-529 1032v-1032h-272zM334 1419q10 60 33.5 105.5t50.5 70.5t61 40.5t61 20.5t54 5q51 0 91.5 -19.5t74.5 -39t67 -19.5q79 0 95 78h178q-10 -60 -33.5 -105.5t-50.5 -70.5t-61 -40.5t-61 -20.5t-54 -5q-51 0 -94 19.5 t-77.5 39t-64.5 19.5q-76 0 -92 -78h-178z" />
<glyph unicode="&#xd2;" horiz-adv-x="1486" d="M76 686q0 325 179 511.5t488 186.5q310 0 489 -186.5t179 -511.5q0 -326 -180 -518.5t-488 -192.5t-487.5 192.5t-179.5 518.5zM358 686q0 -238 108 -365.5t277 -127.5q170 0 277.5 127.5t107.5 365.5t-106.5 359.5t-278.5 121.5q-171 0 -278 -121.5t-107 -359.5z M430 1645h322l196 -215h-215z" />
<glyph unicode="&#xd3;" horiz-adv-x="1486" d="M76 686q0 325 179 511.5t488 186.5q310 0 489 -186.5t179 -511.5q0 -326 -180 -518.5t-488 -192.5t-487.5 192.5t-179.5 518.5zM358 686q0 -238 108 -365.5t277 -127.5q170 0 277.5 127.5t107.5 365.5t-106.5 359.5t-278.5 121.5q-171 0 -278 -121.5t-107 -359.5z M573 1430l197 215h322l-304 -215h-215z" />
<glyph unicode="&#xd4;" horiz-adv-x="1486" d="M76 686q0 325 179 511.5t488 186.5q310 0 489 -186.5t179 -511.5q0 -326 -180 -518.5t-488 -192.5t-487.5 192.5t-179.5 518.5zM358 686q0 -238 108 -365.5t277 -127.5q170 0 277.5 127.5t107.5 365.5t-106.5 359.5t-278.5 121.5q-171 0 -278 -121.5t-107 -359.5z M358 1430l267 215h227l260 -215h-250l-125 94l-131 -94h-248z" />
<glyph unicode="&#xd5;" horiz-adv-x="1486" d="M76 686q0 325 179 511.5t488 186.5q310 0 489 -186.5t179 -511.5q0 -326 -180 -518.5t-488 -192.5t-487.5 192.5t-179.5 518.5zM346 1419q10 60 33.5 105.5t50.5 70.5t61 40.5t61 20.5t54 5q51 0 92 -19.5t75 -39t67 -19.5q78 0 94 78h178q-10 -60 -33.5 -105.5 t-50.5 -70.5t-61 -40.5t-61 -20.5t-54 -5q-51 0 -94 19.5t-77.5 39t-64.5 19.5q-76 0 -92 -78h-178zM358 686q0 -238 108 -365.5t277 -127.5q170 0 277.5 127.5t107.5 365.5t-106.5 359.5t-278.5 121.5q-171 0 -278 -121.5t-107 -359.5z" />
<glyph unicode="&#xd6;" horiz-adv-x="1486" d="M76 686q0 325 179 511.5t488 186.5q310 0 489 -186.5t179 -511.5q0 -326 -180 -518.5t-488 -192.5t-487.5 192.5t-179.5 518.5zM358 686q0 -238 108 -365.5t277 -127.5q170 0 277.5 127.5t107.5 365.5t-106.5 359.5t-278.5 121.5q-171 0 -278 -121.5t-107 -359.5z M399 1430v215h219v-215h-219zM856 1430v215h219v-215h-219z" />
<glyph unicode="&#xd7;" horiz-adv-x="983" d="M41 197l303 305l-299 299l154 153l299 -299l305 303l137 -139l-303 -303l305 -305l-154 -154l-305 305l-303 -303z" />
<glyph unicode="&#xd8;" horiz-adv-x="1482" d="M76 686q0 325 178.5 511.5t486.5 186.5q244 0 406 -116l113 131l106 -88l-117 -137q158 -188 158 -488q0 -326 -179.5 -518.5t-486.5 -192.5q-241 0 -409 123l-117 -137l-104 90l120 144q-155 188 -155 491zM356 686q0 -165 56 -283l575 676q-101 88 -246 88 q-171 0 -278 -121.5t-107 -359.5zM494 287q101 -94 247 -94q170 0 277.5 127.5t107.5 365.5q0 166 -55 279z" />
<glyph unicode="&#xd9;" horiz-adv-x="1347" d="M102 584v776h273v-778q0 -99 12 -165t43.5 -119.5t92.5 -79t153 -25.5q74 0 127 17.5t85.5 48.5t51.5 81.5t26 107t7 134.5v778h272v-776q0 -228 -59.5 -361t-181.5 -190.5t-328 -57.5t-329.5 57.5t-184 191t-60.5 360.5zM352 1645h322l196 -215h-215z" />
<glyph unicode="&#xda;" horiz-adv-x="1347" d="M102 584v776h273v-778q0 -99 12 -165t43.5 -119.5t92.5 -79t153 -25.5q74 0 127 17.5t85.5 48.5t51.5 81.5t26 107t7 134.5v778h272v-776q0 -228 -59.5 -361t-181.5 -190.5t-328 -57.5t-329.5 57.5t-184 191t-60.5 360.5zM498 1430l196 215h322l-303 -215h-215z" />
<glyph unicode="&#xdb;" horiz-adv-x="1347" d="M102 584v776h273v-778q0 -99 12 -165t43.5 -119.5t92.5 -79t153 -25.5q74 0 127 17.5t85.5 48.5t51.5 81.5t26 107t7 134.5v778h272v-776q0 -228 -59.5 -361t-181.5 -190.5t-328 -57.5t-329.5 57.5t-184 191t-60.5 360.5zM291 1430l266 215h227l260 -215h-249l-125 94 l-131 -94h-248z" />
<glyph unicode="&#xdc;" horiz-adv-x="1347" d="M102 584v776h273v-778q0 -99 12 -165t43.5 -119.5t92.5 -79t153 -25.5q74 0 127 17.5t85.5 48.5t51.5 81.5t26 107t7 134.5v778h272v-776q0 -228 -59.5 -361t-181.5 -190.5t-328 -57.5t-329.5 57.5t-184 191t-60.5 360.5zM330 1430v215h219v-215h-219zM786 1430v215h220 v-215h-220z" />
<glyph unicode="&#xdd;" horiz-adv-x="1236" d="M-20 1360h317l321 -578l328 578h311l-507 -848v-512h-273v516zM432 1430l197 215h321l-303 -215h-215z" />
<glyph unicode="&#xde;" horiz-adv-x="1177" d="M123 0v1360h278v-221h177q69 0 123 -3.5t118 -14.5t112 -30.5t95 -54t77.5 -81.5t49 -116.5t18.5 -156.5q0 -103 -31 -180.5t-83 -126t-129 -78.5t-159 -41.5t-183 -11.5h-185v-244h-278zM401 463h189q54 0 96 5t82 19t66 37.5t41.5 63t15.5 92.5q0 65 -20 111t-49 70 t-76 37.5t-84.5 16.5t-92.5 3h-168v-455z" />
<glyph unicode="&#xdf;" horiz-adv-x="1241" d="M119 0v881q0 145 28.5 232t85.5 144q130 127 398 127q100 0 182.5 -20t147 -61t100 -109t35.5 -158q0 -101 -45 -169t-105 -97q101 -35 167.5 -128.5t66.5 -235.5q0 -205 -137 -318t-365 -113q-114 0 -225 25l39 211q94 -27 178 -27q109 0 176 58.5t67 160.5 q0 129 -87.5 184.5t-245.5 55.5h-37v207h26q136 0 201.5 39t65.5 133q0 79 -54 120.5t-157 41.5q-130 0 -191 -74q-53 -69 -53 -231v-879h-262z" />
<glyph unicode="&#xe0;" horiz-adv-x="1073" d="M59 303q0 -134 100.5 -231t266.5 -97q116 0 191.5 32t125.5 102l7 -109h241q-20 161 -20 332q0 55 3 173.5t3 139.5q3 200 -101.5 293.5t-328.5 93.5q-208 0 -324 -92t-129 -242l242 -8q6 76 58.5 114t140.5 38q90 0 136 -36.5t46 -121.5v-35l-185 -20 q-135 -14 -226 -40.5t-152 -74.5q-95 -75 -95 -211zM233 1360h299l181 -242h-195zM326 305q0 60 51.5 95.5t167.5 48.5l178 20v-61q0 -116 -68 -177t-170 -61q-74 0 -116.5 38.5t-42.5 96.5z" />
<glyph unicode="&#xe1;" horiz-adv-x="1073" d="M59 303q0 -134 100.5 -231t266.5 -97q116 0 191.5 32t125.5 102l7 -109h241q-20 161 -20 332q0 55 3 173.5t3 139.5q3 200 -101.5 293.5t-328.5 93.5q-208 0 -324 -92t-129 -242l242 -8q6 76 58.5 114t140.5 38q90 0 136 -36.5t46 -121.5v-35l-185 -20 q-135 -14 -226 -40.5t-152 -74.5q-95 -75 -95 -211zM326 305q0 60 51.5 95.5t167.5 48.5l178 20v-61q0 -116 -68 -177t-170 -61q-74 0 -116.5 38.5t-42.5 96.5zM395 1118l180 242h299l-284 -242h-195z" />
<glyph unicode="&#xe2;" horiz-adv-x="1073" d="M59 303q0 -134 100.5 -231t266.5 -97q116 0 191.5 32t125.5 102l7 -109h241q-20 161 -20 332q0 55 3 173.5t3 139.5q3 200 -101.5 293.5t-328.5 93.5q-208 0 -324 -92t-129 -242l242 -8q6 76 58.5 114t140.5 38q90 0 136 -36.5t46 -121.5v-35l-185 -20 q-135 -14 -226 -40.5t-152 -74.5q-95 -75 -95 -211zM160 1118l280 242h189l280 -242h-229l-145 105l-146 -105h-229zM326 305q0 60 51.5 95.5t167.5 48.5l178 20v-61q0 -116 -68 -177t-170 -61q-74 0 -116.5 38.5t-42.5 96.5z" />
<glyph unicode="&#xe3;" horiz-adv-x="1073" d="M59 303q0 -134 100.5 -231t266.5 -97q116 0 191.5 32t125.5 102l7 -109h241q-20 161 -20 332q0 55 3 173.5t3 139.5q3 200 -101.5 293.5t-328.5 93.5q-208 0 -324 -92t-129 -242l242 -8q6 76 58.5 114t140.5 38q90 0 136 -36.5t46 -121.5v-35l-185 -20 q-135 -14 -226 -40.5t-152 -74.5q-95 -75 -95 -211zM145 1118q10 64 33 111t48 71.5t59.5 38.5t59 17.5t54.5 3.5q51 0 95 -21t80.5 -42t70.5 -21q81 0 96 84h181q-10 -64 -32.5 -111t-47.5 -71.5t-59 -38.5t-58.5 -17.5t-54.5 -3.5q-52 0 -98 21t-84 42t-68 21 q-79 0 -94 -84h-181zM326 305q0 60 51.5 95.5t167.5 48.5l178 20v-61q0 -116 -68 -177t-170 -61q-74 0 -116.5 38.5t-42.5 96.5z" />
<glyph unicode="&#xe4;" horiz-adv-x="1073" d="M59 303q0 -134 100.5 -231t266.5 -97q116 0 191.5 32t125.5 102l7 -109h241q-20 161 -20 332q0 55 3 173.5t3 139.5q3 200 -101.5 293.5t-328.5 93.5q-208 0 -324 -92t-129 -242l242 -8q6 76 58.5 114t140.5 38q90 0 136 -36.5t46 -121.5v-35l-185 -20 q-135 -14 -226 -40.5t-152 -74.5q-95 -75 -95 -211zM203 1124v226h219v-226h-219zM326 305q0 60 51.5 95.5t167.5 48.5l178 20v-61q0 -116 -68 -177t-170 -61q-74 0 -116.5 38.5t-42.5 96.5zM659 1124v226h220v-226h-220z" />
<glyph unicode="&#xe5;" horiz-adv-x="1073" d="M59 303q0 -134 100.5 -231t266.5 -97q116 0 191.5 32t125.5 102l7 -109h241q-20 161 -20 332q0 55 3 173.5t3 139.5q3 200 -101.5 293.5t-328.5 93.5q-208 0 -324 -92t-129 -242l242 -8q6 76 58.5 114t140.5 38q90 0 136 -36.5t46 -121.5v-35l-185 -20 q-135 -14 -226 -40.5t-152 -74.5q-95 -75 -95 -211zM326 305q0 60 51.5 95.5t167.5 48.5l178 20v-61q0 -116 -68 -177t-170 -61q-74 0 -116.5 38.5t-42.5 96.5zM336 1284q0 73 52.5 121.5t127.5 48.5t127.5 -48.5t52.5 -121.5t-52 -121.5t-128 -48.5t-128 48.5t-52 121.5z M438 1284q0 -33 22.5 -54.5t55.5 -21.5t55.5 21.5t22.5 54.5t-22.5 55.5t-55.5 22.5t-55.5 -22.5t-22.5 -55.5z" />
<glyph unicode="&#xe6;" horiz-adv-x="1757" d="M59 303q0 129 95 207q62 50 153 77.5t225 41.5l185 20v35q0 85 -46 121.5t-136 36.5q-85 0 -137.5 -39.5t-61.5 -112.5l-242 8q13 150 129 242t324 92q248 0 342 -119q132 113 325 113q157 0 272 -77.5t171 -214.5t47 -312h-737q3 -112 73 -179t179 -67q91 0 145.5 41 t77.5 107l246 -33q-51 -152 -179 -234t-286 -82q-277 0 -406 185q-132 -185 -391 -185q-166 0 -266.5 97t-100.5 231zM326 305q0 -58 42.5 -96.5t116.5 -38.5q102 0 170 61t68 177v61l-178 -20q-116 -13 -167.5 -48.5t-51.5 -95.5zM965 604h477q-3 62 -25 109t-57 72.5 t-73 38t-79 12.5q-101 0 -170 -59.5t-73 -172.5z" />
<glyph unicode="&#xe7;" horiz-adv-x="1075" d="M51 500q0 237 135 381.5t371 144.5q171 0 299.5 -87.5t169.5 -262.5l-248 -37q-15 81 -71 133.5t-152 52.5q-108 0 -173 -83t-65 -240q0 -156 66 -241t172 -85q191 0 229 193l250 -35q-45 -178 -175 -267.5t-302 -91.5l-41 -67q35 6 76 6q63 -2 105 -37.5t42 -91.5 q0 -72 -65.5 -114t-155.5 -42q-106 0 -182 35l33 86q54 -26 110 -26q107 0 107 55q0 26 -20.5 39.5t-55.5 13.5q-47 0 -74 -16l-57 32l82 134q-194 27 -302 166t-108 352z" />
<glyph unicode="&#xe8;" horiz-adv-x="1112" d="M51 502q0 232 139 378t369 146q245 0 378.5 -163.5t121.5 -440.5h-748q4 -110 73.5 -178t176.5 -68q93 0 153 41t83 107l245 -33q-15 -44 -40 -86.5t-66.5 -85t-93 -74t-123.5 -51t-154 -19.5q-165 0 -283 71.5t-174.5 189t-56.5 266.5zM238 1360h299l180 -242h-195z M311 604h486q-2 60 -24 106t-57.5 72.5t-76.5 40t-86 13.5q-95 0 -165.5 -57t-76.5 -175z" />
<glyph unicode="&#xe9;" horiz-adv-x="1112" d="M51 502q0 232 139 378t369 146q245 0 378.5 -163.5t121.5 -440.5h-748q4 -110 73.5 -178t176.5 -68q93 0 153 41t83 107l245 -33q-15 -44 -40 -86.5t-66.5 -85t-93 -74t-123.5 -51t-154 -19.5q-165 0 -283 71.5t-174.5 189t-56.5 266.5zM311 604h486q-2 60 -24 106 t-57.5 72.5t-76.5 40t-86 13.5q-95 0 -165.5 -57t-76.5 -175zM414 1118l180 242h299l-285 -242h-194z" />
<glyph unicode="&#xea;" horiz-adv-x="1112" d="M51 502q0 232 139 378t369 146q245 0 378.5 -163.5t121.5 -440.5h-748q4 -110 73.5 -178t176.5 -68q93 0 153 41t83 107l245 -33q-15 -44 -40 -86.5t-66.5 -85t-93 -74t-123.5 -51t-154 -19.5q-165 0 -283 71.5t-174.5 189t-56.5 266.5zM174 1118l281 242h188l281 -242 h-230l-145 105l-146 -105h-229zM311 604h486q-2 60 -24 106t-57.5 72.5t-76.5 40t-86 13.5q-95 0 -165.5 -57t-76.5 -175z" />
<glyph unicode="&#xeb;" horiz-adv-x="1112" d="M51 502q0 232 139 378t369 146q245 0 378.5 -163.5t121.5 -440.5h-748q4 -110 73.5 -178t176.5 -68q93 0 153 41t83 107l245 -33q-15 -44 -40 -86.5t-66.5 -85t-93 -74t-123.5 -51t-154 -19.5q-165 0 -283 71.5t-174.5 189t-56.5 266.5zM217 1124v226h219v-226h-219z M311 604h486q-2 60 -24 106t-57.5 72.5t-76.5 40t-86 13.5q-95 0 -165.5 -57t-76.5 -175zM674 1124v226h219v-226h-219z" />
<glyph unicode="&#xec;" horiz-adv-x="499" d="M-109 1360h299l181 -242h-195zM119 0v1004h262v-1004h-262z" />
<glyph unicode="&#xed;" horiz-adv-x="499" d="M119 0v1004h262v-1004h-262zM119 1118l180 242h299l-285 -242h-194z" />
<glyph unicode="&#xee;" horiz-adv-x="499" d="M-86 1098l266 262h146l260 -262h-230l-104 119l-111 -119h-227zM119 0v1004h262v-1004h-262z" />
<glyph unicode="&#xef;" horiz-adv-x="499" d="M-27 1112v225h220v-225h-220zM119 0v1004h262v-1004h-262zM307 1112v225h219v-225h-219z" />
<glyph unicode="&#xf0;" horiz-adv-x="1107" d="M51 502q0 236 128 380t319 144q162 0 264 -117l2 2q-74 140 -223 244l-129 -80l-109 51l139 86q-42 25 -151 74l184 113q95 -45 146 -76l110 70l111 -54l-129 -77q334 -242 334 -670q0 -301 -140 -459t-364 -158q-216 0 -354 142.5t-138 384.5zM317 500q0 -146 59.5 -235 t164.5 -89q111 0 172 82t61 244q0 155 -61.5 239t-171.5 84q-105 0 -164.5 -89.5t-59.5 -235.5z" />
<glyph unicode="&#xf1;" horiz-adv-x="1134" d="M119 0v1004h262v-115q43 67 121.5 102t175.5 35q194 0 283 -117q71 -92 71 -284v-625h-262v567q0 135 -37 187q-45 61 -141 61q-62 0 -105 -23.5t-65.5 -68t-31.5 -95t-9 -116.5v-512h-262zM193 1118q10 64 32.5 111t48 71.5t59.5 38.5t58.5 17.5t54.5 3.5q51 0 95 -21 t80.5 -42t70.5 -21q81 0 96 84h181q-10 -64 -32.5 -111t-47.5 -71.5t-59 -38.5t-58.5 -17.5t-54.5 -3.5q-52 0 -98 21t-84 42t-68 21q-79 0 -94 -84h-180z" />
<glyph unicode="&#xf2;" horiz-adv-x="1110" d="M51 500q0 131 41 233.5t111.5 165t160 95t191.5 32.5t191.5 -32.5t160 -95t111.5 -165t41 -233.5t-41 -233.5t-111.5 -165t-160 -94.5t-191.5 -32t-191.5 32t-160 94.5t-111.5 165t-41 233.5zM272 1360h299l181 -242h-195zM317 500q0 -152 64 -238t174 -86t174 86t64 238 q0 154 -64 239.5t-174 85.5t-174 -85.5t-64 -239.5z" />
<glyph unicode="&#xf3;" horiz-adv-x="1110" d="M51 500q0 131 41 233.5t111.5 165t160 95t191.5 32.5t191.5 -32.5t160 -95t111.5 -165t41 -233.5t-41 -233.5t-111.5 -165t-160 -94.5t-191.5 -32t-191.5 32t-160 94.5t-111.5 165t-41 233.5zM317 500q0 -152 64 -238t174 -86t174 86t64 238q0 154 -64 239.5t-174 85.5 t-174 -85.5t-64 -239.5zM403 1118l181 242h299l-285 -242h-195z" />
<glyph unicode="&#xf4;" horiz-adv-x="1110" d="M51 500q0 131 41 233.5t111.5 165t160 95t191.5 32.5t191.5 -32.5t160 -95t111.5 -165t41 -233.5t-41 -233.5t-111.5 -165t-160 -94.5t-191.5 -32t-191.5 32t-160 94.5t-111.5 165t-41 233.5zM186 1118l281 242h188l281 -242h-229l-146 105l-145 -105h-230zM317 500 q0 -152 64 -238t174 -86t174 86t64 238q0 154 -64 239.5t-174 85.5t-174 -85.5t-64 -239.5z" />
<glyph unicode="&#xf5;" horiz-adv-x="1110" d="M51 500q0 131 41 233.5t111.5 165t160 95t191.5 32.5t191.5 -32.5t160 -95t111.5 -165t41 -233.5t-41 -233.5t-111.5 -165t-160 -94.5t-191.5 -32t-191.5 32t-160 94.5t-111.5 165t-41 233.5zM164 1118q10 64 33 111t48 71.5t59.5 38.5t59 17.5t54.5 3.5q51 0 95 -21 t80.5 -42t70.5 -21q81 0 96 84h180q-10 -64 -32.5 -111t-47.5 -71.5t-59 -38.5t-58.5 -17.5t-54.5 -3.5q-52 0 -98 21t-84 42t-68 21q-79 0 -94 -84h-180zM317 500q0 -152 64 -238t174 -86t174 86t64 238q0 154 -64 239.5t-174 85.5t-174 -85.5t-64 -239.5z" />
<glyph unicode="&#xf6;" horiz-adv-x="1110" d="M51 500q0 131 41 233.5t111.5 165t160 95t191.5 32.5t191.5 -32.5t160 -95t111.5 -165t41 -233.5t-41 -233.5t-111.5 -165t-160 -94.5t-191.5 -32t-191.5 32t-160 94.5t-111.5 165t-41 233.5zM217 1124v226h219v-226h-219zM317 500q0 -152 64 -238t174 -86t174 86t64 238 q0 154 -64 239.5t-174 85.5t-174 -85.5t-64 -239.5zM674 1124v226h219v-226h-219z" />
<glyph unicode="&#xf7;" horiz-adv-x="1140" d="M61 393h1018v230h-1018v-230zM426 41v266h283v-266h-283zM426 696v267h283v-267h-283z" />
<glyph unicode="&#xf8;" horiz-adv-x="1114" d="M49 16l115 134q-111 137 -111 350q0 130 42 232.5t113.5 165.5t160.5 95.5t188 32.5q163 0 293 -86l108 125l95 -82l-111 -127q119 -139 119 -356q0 -130 -42 -232.5t-113.5 -165t-160.5 -95t-188 -32.5q-173 0 -301 91l-115 -134zM319 500q0 -82 19 -150l364 420 q-58 55 -145 55q-110 0 -174 -85.5t-64 -239.5zM403 236q63 -60 154 -60q110 0 174 86t64 238q0 85 -23 159z" />
<glyph unicode="&#xf9;" horiz-adv-x="1128" d="M104 377v627h263v-578q0 -68 6.5 -109t27.5 -69q45 -62 138 -62q51 0 88.5 17.5t60.5 45.5t36.5 70t18.5 85t5 96v504h262v-1004h-262v113q-44 -66 -121.5 -102t-171.5 -36q-186 0 -275 111q-76 91 -76 291zM258 1360h299l180 -242h-194z" />
<glyph unicode="&#xfa;" horiz-adv-x="1128" d="M104 377v627h263v-578q0 -68 6.5 -109t27.5 -69q45 -62 138 -62q51 0 88.5 17.5t60.5 45.5t36.5 70t18.5 85t5 96v504h262v-1004h-262v113q-44 -66 -121.5 -102t-171.5 -36q-186 0 -275 111q-76 91 -76 291zM410 1118l180 242h299l-285 -242h-194z" />
<glyph unicode="&#xfb;" horiz-adv-x="1128" d="M104 377v627h263v-578q0 -68 6.5 -109t27.5 -69q45 -62 138 -62q51 0 88.5 17.5t60.5 45.5t36.5 70t18.5 85t5 96v504h262v-1004h-262v113q-44 -66 -121.5 -102t-171.5 -36q-186 0 -275 111q-76 91 -76 291zM195 1118l280 242h189l280 -242h-229l-146 105l-145 -105h-229 z" />
<glyph unicode="&#xfc;" horiz-adv-x="1128" d="M104 377v627h263v-578q0 -68 6.5 -109t27.5 -69q45 -62 138 -62q51 0 88.5 17.5t60.5 45.5t36.5 70t18.5 85t5 96v504h262v-1004h-262v113q-44 -66 -121.5 -102t-171.5 -36q-186 0 -275 111q-76 91 -76 291zM225 1124v226h219v-226h-219zM682 1124v226h219v-226h-219z " />
<glyph unicode="&#xfd;" horiz-adv-x="958" d="M-25 1004l371 -1000l-10 -22q-34 -75 -68.5 -97t-103.5 -22h-98v-217h110q66 0 112 6t86 24t67.5 42.5t56 71.5t52 101t54.5 140l354 973h-266l-217 -678l-213 678h-287zM344 1118l180 242h299l-284 -242h-195z" />
<glyph unicode="&#xfe;" horiz-adv-x="1144" d="M119 -354v1714h262v-463q99 129 274 129q194 0 316.5 -141.5t122.5 -384.5q0 -237 -129 -381t-326 -144q-158 0 -258 115v-444h-262zM371 500q0 -149 62.5 -236.5t170.5 -87.5q105 0 164 90t59 236t-59 234.5t-164 88.5q-109 0 -171 -87t-62 -238z" />
<glyph unicode="&#xff;" horiz-adv-x="958" d="M-25 1004l371 -1000l-10 -22q-34 -75 -68.5 -97t-103.5 -22h-98v-217h110q66 0 112 6t86 24t67.5 42.5t56 71.5t52 101t54.5 140l354 973h-266l-217 -678l-213 678h-287zM154 1124v226h219v-226h-219zM610 1124v226h219v-226h-219z" />
<glyph unicode="&#x152;" horiz-adv-x="2156" d="M76 686q0 325 178.5 511.5t486.5 186.5q211 0 365 -112v88h1005v-221h-733v-324h693v-221h-693v-373h733v-221h-1005v90q-153 -115 -365 -115q-307 0 -486 192.5t-179 518.5zM356 686q0 -238 108 -365.5t277 -127.5q170 0 277.5 127.5t107.5 365.5t-106.5 359.5 t-278.5 121.5q-171 0 -278 -121.5t-107 -359.5z" />
<glyph unicode="&#x153;" horiz-adv-x="1828" d="M51 500q0 130 42 232.5t113.5 165.5t160.5 95.5t188 32.5q112 0 206 -41.5t157 -122.5q135 164 368 164q157 0 272 -77.5t171 -214.5t47 -312h-738q3 -112 73 -179t179 -67q89 0 145 41t78 107l246 -33q-52 -150 -176.5 -233t-288.5 -83q-250 0 -379 158 q-131 -158 -360 -158q-99 0 -188 32.5t-160.5 95t-113.5 165t-42 232.5zM317 500q0 -152 64 -238t174 -86t174 86t64 238q0 154 -64 239.5t-174 85.5t-174 -85.5t-64 -239.5zM1034 604h479q-7 116 -75.5 174t-157.5 58q-92 0 -164 -56t-82 -176z" />
<glyph unicode="&#x178;" horiz-adv-x="1236" d="M-20 1360h317l321 -578l328 578h311l-507 -848v-512h-273v516zM279 1430v215h219v-215h-219zM735 1430v215h219v-215h-219z" />
<glyph unicode="&#x2c6;" horiz-adv-x="835" d="M45 1118l281 242h188l281 -242h-230l-145 105l-146 -105h-229z" />
<glyph unicode="&#x2dc;" horiz-adv-x="858" d="M41 1118q10 64 33 111t48 71.5t59.5 38.5t59 17.5t54.5 3.5q51 0 95 -21t80.5 -42t70.5 -21q81 0 96 84h180q-10 -64 -32.5 -111t-47.5 -71.5t-59 -38.5t-58.5 -17.5t-54.5 -3.5q-52 0 -98 21t-84 42t-68 21q-79 0 -94 -84h-180z" />
<glyph unicode="&#x2000;" horiz-adv-x="867" />
<glyph unicode="&#x2001;" horiz-adv-x="1735" />
<glyph unicode="&#x2002;" horiz-adv-x="867" />
<glyph unicode="&#x2003;" horiz-adv-x="1735" />
<glyph unicode="&#x2004;" horiz-adv-x="578" />
<glyph unicode="&#x2005;" horiz-adv-x="433" />
<glyph unicode="&#x2006;" horiz-adv-x="289" />
<glyph unicode="&#x2007;" horiz-adv-x="289" />
<glyph unicode="&#x2008;" horiz-adv-x="216" />
<glyph unicode="&#x2009;" horiz-adv-x="347" />
<glyph unicode="&#x200a;" horiz-adv-x="96" />
<glyph unicode="&#x2010;" horiz-adv-x="794" d="M82 393v230h631v-230h-631z" />
<glyph unicode="&#x2011;" horiz-adv-x="794" d="M82 393v230h631v-230h-631z" />
<glyph unicode="&#x2012;" horiz-adv-x="794" d="M82 393v230h631v-230h-631z" />
<glyph unicode="&#x2013;" horiz-adv-x="974" d="M61 393v230h852v-230h-852z" />
<glyph unicode="&#x2014;" horiz-adv-x="1386" d="M61 393v230h1264v-230h-1264z" />
<glyph unicode="&#x2018;" horiz-adv-x="487" d="M96 770v301l158 289h149l-141 -309h129v-281h-295z" />
<glyph unicode="&#x2019;" horiz-adv-x="487" d="M84 770l141 309h-129v281h295v-301l-158 -289h-149z" />
<glyph unicode="&#x201a;" horiz-adv-x="487" d="M84 -324l141 324h-129v285h295v-305l-158 -304h-149z" />
<glyph unicode="&#x201c;" horiz-adv-x="872" d="M96 770v301l158 289h149l-141 -309h129v-281h-295zM481 770v301l158 289h149l-141 -309h129v-281h-295z" />
<glyph unicode="&#x201d;" horiz-adv-x="872" d="M84 770l141 309h-129v281h295v-301l-158 -289h-149zM469 770l141 309h-129v281h295v-301l-158 -289h-149z" />
<glyph unicode="&#x201e;" horiz-adv-x="876" d="M84 -324l141 324h-129v285h295v-305l-158 -304h-149zM473 -324l141 324h-129v285h295v-305l-157 -304h-150z" />
<glyph unicode="&#x2022;" horiz-adv-x="849" d="M82 530q0 139 99 238.5t237 99.5q148 0 249 -98.5t101 -239.5q0 -148 -100.5 -248t-249.5 -100q-139 0 -237.5 100.5t-98.5 247.5z" />
<glyph unicode="&#x2026;" horiz-adv-x="1601" d="M96 0v285h283v-285h-283zM659 0v285h283v-285h-283zM1223 0v285h282v-285h-282z" />
<glyph unicode="&#x202f;" horiz-adv-x="347" />
<glyph unicode="&#x2039;" horiz-adv-x="602" d="M20 500l304 436h237l-237 -436l237 -439h-237z" />
<glyph unicode="&#x203a;" horiz-adv-x="600" d="M41 61l235 439l-235 436h235l304 -436l-304 -439h-235z" />
<glyph unicode="&#x205f;" horiz-adv-x="433" />
<glyph unicode="&#x20ac;" horiz-adv-x="1431" d="M-20 465l102 156h129q-2 20 -2 63q0 39 2 59h-231l102 156h147q51 230 204.5 357.5t379.5 127.5q224 0 371 -125.5t176 -345.5l-234 -2q-50 273 -321 273q-268 0 -338 -285h516l-102 -156h-435v-59v-63h373l-102 -156h-248q66 -289 336 -289q278 0 330 273l233 -3 q-32 -226 -183.5 -348.5t-379.5 -122.5q-227 0 -376.5 128t-199.5 362h-249z" />
<glyph unicode="&#x2122;" horiz-adv-x="1845" d="M20 1169v191h725v-191h-251v-569h-224v569h-250zM793 600v760h358l139 -488l158 488h336v-760h-221v533l-174 -533h-199l-176 528v-528h-221z" />
<glyph unicode="&#x25fc;" horiz-adv-x="1003" d="M0 0v1004h1004v-1004h-1004z" />
</font>
</defs>
</svg>
