<?xml version="1.0" standalone="no"?>
<!DOCTYPE svg PUBLIC "-//W3C//DTD SVG 1.1//EN" "http://www.w3.org/Graphics/SVG/1.1/DTD/svg11.dtd" >
<svg xmlns="http://www.w3.org/2000/svg" xmlns:xlink="http://www.w3.org/1999/xlink" version="1.1">
<metadata></metadata>
<defs>
<font id="suisse_bp_intl_regularregular" horiz-adv-x="1087" >
<font-face units-per-em="2048" ascent="1536" descent="-512" />
<missing-glyph horiz-adv-x="450" />
<glyph unicode="&#xfb01;" horiz-adv-x="1044" d="M39 860v144h141v73q0 84 10.5 134.5t41.5 86t84 49t141 13.5h90v-148h-86q-67 0 -87 -26t-20 -107v-75h193v-144h-193v-860h-174v860h-141zM733 0v1004h174v-1004h-174zM733 1151v209h174v-209h-174z" />
<glyph unicode="&#xfb02;" horiz-adv-x="1044" d="M39 860v144h141v73q0 84 10.5 134.5t41.5 86t84 49t141 13.5h90v-148h-86q-67 0 -87 -26t-20 -107v-75h193v-144h-193v-860h-174v860h-141zM733 0v1360h174v-1360h-174z" />
<glyph unicode="&#xfb03;" horiz-adv-x="1640" d="M39 860v144h141v73q0 84 10.5 134.5t41.5 86t84 49t141 13.5h90v-148h-86q-67 0 -87 -26t-20 -107v-75h193v-144h-193v-860h-174v860h-141zM635 860v144h141v73q0 84 10.5 134.5t41.5 86t84 49t141 13.5h90v-148h-86q-67 0 -87 -26t-20 -107v-75h193v-144h-193v-860h-174 v860h-141zM1329 0v1004h174v-1004h-174zM1329 1151v209h174v-209h-174z" />
<glyph unicode="&#xfb04;" horiz-adv-x="1640" d="M39 860v144h141v73q0 84 10.5 134.5t41.5 86t84 49t141 13.5h90v-148h-86q-67 0 -87 -26t-20 -107v-75h193v-144h-193v-860h-174v860h-141zM635 860v144h141v73q0 84 10.5 134.5t41.5 86t84 49t141 13.5h90v-148h-86q-67 0 -87 -26t-20 -107v-75h193v-144h-193v-860h-174 v860h-141zM1329 0v1360h174v-1360h-174z" />
<glyph horiz-adv-x="0" />
<glyph horiz-adv-x="682" />
<glyph unicode=" "  horiz-adv-x="450" />
<glyph unicode="&#x09;" horiz-adv-x="450" />
<glyph unicode="&#xa0;" horiz-adv-x="450" />
<glyph unicode="!" horiz-adv-x="464" d="M123 0v219h219v-219h-219zM135 963v397h182v-397l-36 -560h-109z" />
<glyph unicode="&#x22;" horiz-adv-x="587" d="M51 1360h195l-39 -483h-117zM342 1360h195l-39 -483h-117z" />
<glyph unicode="#" horiz-adv-x="1267" d="M41 422l18 135h271l43 311h-269l19 136h268l51 356h142l-52 -356h297l52 356h141l-51 -356h256l-19 -136h-256l-43 -311h254l-18 -135h-254l-60 -422h-141l60 422h-297l-60 -422h-141l59 422h-270zM471 557h297l43 311h-297z" />
<glyph unicode="$" horiz-adv-x="1118" d="M63 430l179 4q3 -141 77 -217t183 -88v498l-43 12q-165 44 -262 140.5t-97 246.5q0 78 33.5 143.5t90.5 109t128.5 70t149.5 33.5v162h104v-162q195 -14 308 -127.5t110 -298.5l-178 -4q-3 135 -69.5 202t-170.5 77v-455l29 -8q74 -20 125.5 -38.5t112 -51t97.5 -71.5 t62 -99t25 -135q0 -92 -35.5 -166t-98 -121.5t-143 -75t-174.5 -33.5v-161h-104v161q-197 17 -319.5 142.5t-119.5 310.5zM279 1028q0 -84 54 -138t167 -85l2 -2v430q-93 -5 -158 -56.5t-65 -148.5zM606 127q118 5 195.5 60t77.5 159q0 58 -17.5 99.5t-57 70t-83.5 46 t-115 36.5v-471z" />
<glyph unicode="%" horiz-adv-x="1693" d="M45 973q0 187 79.5 294t233.5 107q153 0 232.5 -107t79.5 -294q0 -186 -79.5 -295t-232.5 -109q-154 0 -233.5 109t-79.5 295zM186 973q0 -145 43.5 -220t128.5 -75q83 0 126.5 75t43.5 220q0 293 -170 293q-172 0 -172 -293zM274 0h193l952 1360h-192zM1024 389 q0 187 79.5 294.5t233.5 107.5q153 0 232.5 -107.5t79.5 -294.5q0 -186 -79.5 -294.5t-232.5 -108.5q-154 0 -233.5 108.5t-79.5 294.5zM1165 389q0 -145 43.5 -220t128.5 -75q83 0 126.5 75t43.5 220q0 293 -170 293q-172 0 -172 -293z" />
<glyph unicode="&#x26;" horiz-adv-x="1337" d="M53 373q0 150 92 254.5t256 160.5q-151 167 -151 308q0 130 104 209t267 79q67 0 127 -15.5t112.5 -48t83.5 -91t31 -137.5q0 -234 -285 -353l279 -290q56 131 67 286h178q-19 -234 -124 -413l309 -322h-250l-168 176q-191 -201 -469 -201q-208 0 -333.5 113.5 t-125.5 284.5zM238 381q0 -114 80.5 -184t193.5 -70q215 0 360 164l-368 389q-266 -92 -266 -299zM434 1100q0 -58 39.5 -117.5t108.5 -130.5l6 -6q103 37 162 96.5t59 138.5q0 78 -51 115t-133 37q-80 0 -135.5 -34t-55.5 -99z" />
<glyph unicode="'" horiz-adv-x="296" d="M51 1360h195l-39 -483h-117z" />
<glyph unicode="(" horiz-adv-x="466" d="M61 504q0 137 24 270.5t65 242t83.5 191.5t90.5 152h143q-102 -168 -164.5 -385.5t-62.5 -470.5t62.5 -472t164.5 -386h-143q-48 69 -90.5 152.5t-83.5 192t-65 242.5t-24 271z" />
<glyph unicode=")" horiz-adv-x="466" d="M0 -354q102 167 164.5 386t62.5 472t-62.5 470.5t-164.5 385.5h143q48 -69 90.5 -152t83.5 -191.5t65 -242t24 -270.5t-24 -271t-65 -242.5t-83.5 -192t-90.5 -152.5h-143z" />
<glyph unicode="*" horiz-adv-x="669" d="M20 1118l39 107l215 -82v227h115v-227l215 82l45 -107l-219 -76l131 -184l-88 -67l-141 192l-129 -192l-101 65l134 186z" />
<glyph unicode="+" horiz-adv-x="1177" d="M72 430v164h430v418h174v-418h430v-164h-430v-430h-174v430h-430z" />
<glyph unicode="," horiz-adv-x="464" d="M115 -264l100 264h-92v219h219v-233l-117 -250h-110z" />
<glyph unicode="-" horiz-adv-x="770" d="M82 440v164h606v-164h-606z" />
<glyph unicode="." horiz-adv-x="464" d="M123 0v219h219v-219h-219z" />
<glyph unicode="/" horiz-adv-x="716" d="M0 0l543 1360h174l-543 -1360h-174z" />
<glyph unicode="0" horiz-adv-x="1259" d="M92 686q0 330 134.5 514t402.5 184q180 0 302 -86t179 -240.5t57 -371.5q0 -219 -57 -376t-179 -246t-302 -89t-301.5 89t-178.5 246t-57 376zM276 686q0 -277 93 -418t260 -141t260.5 141t93.5 418q0 275 -93 411t-261 136t-260.5 -136t-92.5 -411z" />
<glyph unicode="1" horiz-adv-x="700" d="M23 1059v119q65 2 108.5 6.5t86.5 16t72.5 31.5t56.5 51.5t50 76.5h119v-1360h-174v1059h-319z" />
<glyph unicode="2" horiz-adv-x="1122" d="M57 0v156q162 120 269 204t211 176.5t162.5 165t94 149t35.5 148.5q0 108 -68 171t-190 63q-59 0 -109.5 -16.5t-93 -51.5t-68 -96t-26.5 -143l-178 4q-3 200 129 327t350 127q196 0 317.5 -95.5t121.5 -266.5q0 -78 -24 -152.5t-80.5 -152t-108 -136.5t-151 -143.5 t-161 -133.5t-184.5 -142h746v-162h-994z" />
<glyph unicode="3" horiz-adv-x="1118" d="M43 391l178 15q16 -131 95 -205t221 -74q140 0 225.5 67t85.5 187q0 258 -397 258h-29v156h22q184 0 275.5 54.5t91.5 172.5q0 100 -76 155.5t-192 55.5q-134 0 -211 -70.5t-88 -189.5l-181 14q15 177 144.5 287t339.5 110q92 0 170 -19t142 -59t100 -108.5t36 -159.5 q0 -105 -58.5 -188t-166.5 -125q262 -84 262 -342q0 -99 -41.5 -178.5t-111.5 -128.5t-158 -75t-186 -26q-117 0 -210 34.5t-151.5 93.5t-91 132t-39.5 156z" />
<glyph unicode="4" horiz-adv-x="1187" d="M33 340v164l684 856h176v-856h254v-164h-254v-340h-174v340h-686zM225 504h494v618z" />
<glyph unicode="5" horiz-adv-x="1155" d="M84 387l178 14q44 -274 316 -274q131 0 219 84.5t88 234.5q0 81 -27 144t-72.5 100t-99.5 55.5t-113 18.5q-96 0 -168 -44.5t-98 -101.5l-174 9l90 733h793v-168h-651l-50 -379q108 102 299 102q123 0 225 -53t166 -161t64 -252q0 -113 -40.5 -204.5t-110 -149.5 t-157.5 -89t-186 -31q-93 0 -171 23t-132.5 61.5t-94.5 92t-62.5 112t-30.5 123.5z" />
<glyph unicode="6" horiz-adv-x="1171" d="M92 631q0 120 17.5 227t58 205t101 168t153.5 111.5t209 41.5q97 0 175.5 -28t128.5 -76.5t80.5 -107t41.5 -125.5l-189 -3q-17 92 -84.5 140.5t-173.5 48.5q-157 0 -244.5 -137.5t-95.5 -378.5q51 85 143 136.5t222 51.5q193 0 318.5 -129t125.5 -332q0 -127 -59 -233.5 t-171 -171t-255 -64.5q-254 0 -378 167.5t-124 488.5zM293 436q0 -141 81.5 -225t217.5 -84q134 0 218.5 85t84.5 224q0 138 -84 225t-217 87q-135 0 -218 -87t-83 -225z" />
<glyph unicode="7" horiz-adv-x="976" d="M20 1190v170h957v-170q-261 -211 -411.5 -510t-174.5 -680h-209q23 363 175.5 662t416.5 528h-754z" />
<glyph unicode="8" horiz-adv-x="1191" d="M92 383q0 49 11.5 95.5t37.5 93t73 86.5t112 67q-97 51 -144 135.5t-47 175.5q0 153 126 250.5t335 97.5t335 -97.5t126 -250.5q0 -91 -47 -175.5t-144 -135.5q65 -27 112 -67t73 -86.5t37.5 -93t11.5 -95.5q0 -190 -142 -299t-362 -109t-362 109t-142 299zM276 383 q0 -119 86.5 -187.5t233.5 -68.5t233 68.5t86 187.5q0 120 -86.5 191t-232.5 71t-233 -71t-87 -191zM309 1018q0 -103 79.5 -168.5t207.5 -65.5t207.5 65.5t79.5 168.5q0 100 -78.5 157.5t-208.5 57.5t-208.5 -57.5t-78.5 -157.5z" />
<glyph unicode="9" horiz-adv-x="1161" d="M82 915q0 127 59 233.5t171 171t255 64.5q502 0 502 -655q0 -121 -17 -227.5t-56.5 -204.5t-99.5 -168.5t-152.5 -112t-208.5 -41.5q-97 0 -176 28t-130.5 77t-82.5 107.5t-42 125.5l189 2q17 -92 84 -140t174 -48q157 0 244.5 137.5t95.5 378.5q-51 -85 -143 -136.5 t-222 -51.5q-193 0 -318.5 128.5t-125.5 331.5zM266 924q0 -138 84 -225t217 -87q135 0 218 87t83 225q0 141 -81.5 225t-217.5 84q-134 0 -218.5 -85t-84.5 -224z" />
<glyph unicode=":" horiz-adv-x="464" d="M123 0v219h219v-219h-219zM123 784v220h219v-220h-219z" />
<glyph unicode=";" horiz-adv-x="464" d="M115 -264l100 264h-92v219h219v-233l-117 -250h-110zM123 784v220h219v-220h-219z" />
<glyph unicode="&#x3c;" horiz-adv-x="1130" d="M72 436v148l977 432v-187l-760 -319l760 -313v-185z" />
<glyph unicode="=" horiz-adv-x="1118" d="M82 248v164h954v-164h-954zM82 633v164h954v-164h-954z" />
<glyph unicode="&#x3e;" horiz-adv-x="1130" d="M82 12v185l760 313l-760 319v187l977 -432v-148z" />
<glyph unicode="?" horiz-adv-x="950" d="M25 975q1 184 131.5 296.5t335.5 112.5q83 0 158.5 -20.5t137 -60t98 -105.5t36.5 -149q0 -64 -21 -120.5t-61 -102.5t-80 -79t-96 -69q-66 -43 -95.5 -68t-47 -60.5t-17.5 -86.5v-60h-176v66q0 113 52.5 180.5t182.5 149.5q45 29 70 48t53 49t40.5 65.5t12.5 80.5 q0 87 -70.5 138t-181.5 51q-76 0 -133.5 -24t-89 -64t-47.5 -83t-18 -91zM309 0v219h219v-219h-219z" />
<glyph unicode="@" horiz-adv-x="1615" d="M88 664q0 151 57.5 284t157 227.5t238 149.5t295.5 55q141 0 261 -37t212.5 -109.5t145 -191t52.5 -270.5q0 -112 -30 -205t-79.5 -152t-111.5 -91.5t-127 -32.5q-77 0 -128.5 46t-63.5 130q-89 -170 -289 -170q-120 0 -200.5 86t-80.5 254q0 84 27 162.5t75.5 141 t123.5 100.5t163 38q77 0 135 -39t85 -106l14 113h135l-55 -414q-3 -29 -5 -48t0 -52t9.5 -53t26.5 -36t49 -16q77 0 129.5 92t52.5 246q0 231 -145 356t-386 125q-130 0 -240.5 -45t-187.5 -123.5t-120 -187t-43 -232.5q0 -238 140 -389t378 -151q92 0 190.5 21t177.5 61 l54 -133q-93 -43 -209 -68t-213 -25q-196 0 -349.5 89.5t-237 246.5t-83.5 353zM561 635q0 -99 41.5 -149t118.5 -50q108 0 170.5 91t62.5 223q0 89 -44 137.5t-122 48.5q-102 0 -164.5 -88t-62.5 -213z" />
<glyph unicode="A" horiz-adv-x="1255" d="M0 0l512 1360h225l518 -1360h-213l-108 295h-627l-104 -295h-203zM369 465h503l-254 694z" />
<glyph unicode="B" horiz-adv-x="1280" d="M164 0v1360h498q82 0 149.5 -8.5t131.5 -31.5t107.5 -60t70 -97.5t26.5 -140.5q0 -98 -41 -178t-113 -121q209 -88 209 -322q0 -86 -25 -154t-69 -114t-106.5 -76t-135 -43.5t-157.5 -13.5h-545zM358 172h353q147 0 220 55.5t73 171.5q0 119 -73.5 169t-232.5 50h-340 v-446zM358 780h332q127 0 193.5 49.5t66.5 165.5q0 193 -260 193h-332v-408z" />
<glyph unicode="C" horiz-adv-x="1372" d="M96 682q0 321 174.5 511.5t466.5 190.5q216 0 369 -112t197 -305l-189 -27q-32 126 -129.5 201.5t-255.5 75.5q-191 0 -312.5 -140t-121.5 -395q0 -252 121 -395.5t317 -143.5q159 0 257.5 74t131.5 203l189 -27q-45 -197 -203 -307.5t-385 -110.5q-293 0 -460 193.5 t-167 513.5z" />
<glyph unicode="D" horiz-adv-x="1368" d="M164 0v1360h315q793 0 793 -680t-793 -680h-315zM358 172h115q71 0 124.5 3.5t119 15.5t113.5 33t96.5 59t78.5 91t49 130.5t19 175.5t-19 175.5t-49 130.5t-78.5 91t-96.5 59t-113.5 33t-119 15.5t-124.5 3.5h-115v-1016z" />
<glyph unicode="E" horiz-adv-x="1167" d="M164 0v1360h936v-172h-742v-402h699v-172h-699v-442h742v-172h-936z" />
<glyph unicode="F" horiz-adv-x="1064" d="M164 0v1360h897v-172h-703v-402h662v-172h-662v-614h-194z" />
<glyph unicode="G" horiz-adv-x="1466" d="M96 682q0 320 175 511t466 191q216 0 370.5 -111.5t201.5 -303.5l-189 -27q-36 123 -135.5 199t-255.5 76q-191 0 -312.5 -140t-121.5 -395q0 -252 119 -395.5t315 -143.5q59 0 113 9.5t109 34.5t94.5 64t64.5 103t25 146v32h-365v173h549v-705h-154l-8 174 q-127 -199 -436 -199q-293 0 -459 193.5t-166 513.5z" />
<glyph unicode="H" horiz-adv-x="1441" d="M164 0v1360h194v-574h725v574h195v-1360h-195v614h-725v-614h-194z" />
<glyph unicode="I" horiz-adv-x="522" d="M164 0v1360h194v-1360h-194z" />
<glyph unicode="J" horiz-adv-x="622" d="M61 0v174h31q44 0 70.5 1.5t47.5 10t30.5 17t15.5 32t7 45.5t1 66v1014h195v-1030q0 -73 -7.5 -126t-26 -89.5t-42 -59t-63 -35t-81.5 -16.5t-104 -4h-74z" />
<glyph unicode="K" horiz-adv-x="1267" d="M164 0v1360h194v-676l623 676h242l-514 -549l573 -811h-233l-471 670l-220 -236v-434h-194z" />
<glyph unicode="L" d="M164 0v1360h194v-1188h729v-172h-923z" />
<glyph unicode="M" horiz-adv-x="1683" d="M164 0v1360h325l353 -1131l352 1131h326v-1360h-195v1182l-381 -1182h-205l-381 1182v-1182h-194z" />
<glyph unicode="N" horiz-adv-x="1437" d="M164 0v1360h285l630 -1155v1155h195v-1360h-285l-631 1157v-1157h-194z" />
<glyph unicode="O" horiz-adv-x="1486" d="M96 680q0 312 181 508t468 196q290 0 468 -190t178 -514q0 -323 -179.5 -514t-470.5 -191q-195 0 -342 89.5t-225 249t-78 366.5zM295 680q0 -253 126 -395t322 -142t322.5 142t126.5 395t-126.5 395t-322.5 142t-322 -142t-126 -395z" />
<glyph unicode="P" horiz-adv-x="1179" d="M164 0v1360h401q106 0 189 -11.5t157.5 -41t123 -77t76.5 -123t28 -175.5t-28 -175.5t-76.5 -123t-123 -77t-157.5 -41t-189 -11.5h-207v-504h-194zM358 676h222q68 0 116.5 5t97 20.5t79 43t49 74.5t18.5 113t-18.5 113t-49 74.5t-79 43t-97 20.5t-116.5 5h-222v-512z " />
<glyph unicode="Q" horiz-adv-x="1513" d="M96 680q0 312 181 508t468 196q290 0 468 -190t178 -514q0 -300 -160 -494l160 -159l-119 -119l-168 168q-153 -101 -363 -101q-195 0 -342 89.5t-225 249t-78 366.5zM295 680q0 -253 126 -395t322 -142q131 0 232 64l-127 127l119 119l129 -131q96 138 96 358 q0 253 -126.5 395t-322.5 142t-322 -142t-126 -395z" />
<glyph unicode="R" horiz-adv-x="1275" d="M164 0v1360h422q108 0 189.5 -9.5t156.5 -35.5t123 -69.5t76 -114.5t28 -168q0 -156 -68.5 -245t-197.5 -128l313 -590h-217l-295 559q-35 -2 -108 -2h-228v-557h-194zM358 729h242q58 0 98 2.5t85.5 9.5t74 22.5t54 40t37.5 63.5t12 91q0 45 -10 80t-26 59t-43 41 t-54.5 26.5t-68 15t-75.5 7t-84 1.5h-242v-459z" />
<glyph unicode="S" horiz-adv-x="1220" d="M61 412l189 26q28 -143 124.5 -219t258.5 -76q151 0 236 60t85 162q0 53 -21.5 92.5t-63.5 67t-92 45t-120 32.5l-172 37q-76 17 -139.5 44t-119.5 70.5t-88 109.5t-32 149q0 76 30.5 139t81 105.5t116.5 72t134.5 42.5t137.5 13q128 0 234 -38t184 -121t104 -203 l-188 -27q-16 61 -52 106t-84.5 69.5t-99 35.5t-106.5 11q-35 0 -71.5 -5.5t-77 -20t-72 -36t-52 -57t-20.5 -80.5q0 -85 59 -132t166 -71l160 -35q53 -12 92.5 -22.5t91 -28.5t88 -38t75 -50.5t62.5 -66.5t39 -85t15 -106q0 -130 -75 -224.5t-191.5 -139t-257.5 -44.5 q-240 0 -390 119.5t-178 317.5z" />
<glyph unicode="T" horiz-adv-x="1091" d="M0 1188v172h1092v-172h-449v-1188h-194v1188h-449z" />
<glyph unicode="U" horiz-adv-x="1392" d="M143 561v799h195v-819q0 -207 82 -302.5t274 -95.5q193 0 277 103.5t84 314.5v799h194v-782q0 -309 -130 -456t-425 -147q-195 0 -314 57t-178 185.5t-59 343.5z" />
<glyph unicode="V" horiz-adv-x="1214" d="M20 1360h213l383 -1159l375 1159h203l-467 -1360h-233z" />
<glyph unicode="W" horiz-adv-x="1755" d="M31 1360h213l266 -1139l256 1139h227l273 -1139l256 1139h202l-344 -1360h-235l-266 1114l-263 -1114h-235z" />
<glyph unicode="X" horiz-adv-x="1249" d="M0 0l512 700l-477 660h229l365 -502l366 502h219l-477 -653l512 -707h-229l-399 549l-402 -549h-219z" />
<glyph unicode="Y" horiz-adv-x="1187" d="M0 1360h213l377 -674l385 674h213l-506 -846v-514h-195v518z" />
<glyph unicode="Z" horiz-adv-x="1204" d="M78 0v172l813 1016h-750v172h977v-172l-811 -1016h842v-172h-1071z" />
<glyph unicode="[" horiz-adv-x="581" d="M154 -354v1714h428v-148h-260v-1419h260v-147h-428z" />
<glyph unicode="\" horiz-adv-x="716" d="M0 1360h174l543 -1360h-174z" />
<glyph unicode="]" horiz-adv-x="581" d="M0 -207h260v1419h-260v148h428v-1714h-428v147z" />
<glyph unicode="^" horiz-adv-x="839" d="M-41 623l383 737h147l392 -737h-187l-278 520l-273 -520h-184z" />
<glyph unicode="_" horiz-adv-x="872" d="M61 -2h750v-164h-750v164z" />
<glyph unicode="`" horiz-adv-x="516" d="M61 1360h222l172 -242h-146z" />
<glyph unicode="a" horiz-adv-x="1054" d="M82 301q0 151 135 227q114 63 346 88l195 21v37q0 115 -61 161t-171 46q-114 0 -173.5 -50t-67.5 -137l-170 6q9 151 127 236.5t293 85.5q214 0 307 -90q90 -87 90 -278v-13l-4 -254v-25q0 -140 20 -362h-168l-6 141q-101 -166 -338 -166q-167 0 -260.5 94.5t-93.5 231.5 zM266 295q0 -78 56 -123t147 -45q44 0 85.5 9.5t81.5 32.5t69 57t47 87.5t18 120.5v60l-209 -21q-152 -14 -223.5 -55t-71.5 -123z" />
<glyph unicode="b" horiz-adv-x="1124" d="M137 0v1360h174v-502q106 162 326 162q185 0 301.5 -141t116.5 -383q0 -239 -122 -380t-317 -141q-105 0 -183.5 40t-121.5 108l-8 -123h-166zM303 496q0 -185 80.5 -277t208.5 -92q135 0 206.5 97t71.5 272q0 177 -71 274.5t-207 97.5q-125 0 -207 -94t-82 -278z" />
<glyph unicode="c" horiz-adv-x="1038" d="M70 500q0 149 56.5 265.5t168 185.5t262.5 69q90 0 167.5 -29.5t129.5 -78t84 -106.5t41 -118l-176 -24q-19 94 -88 148t-170 54q-127 0 -209 -93.5t-82 -270.5q0 -179 83 -276t208 -97q106 0 176 56.5t90 144.5l178 -23q-26 -138 -150 -235t-298 -97q-219 0 -345 146.5 t-126 378.5z" />
<glyph unicode="d" horiz-adv-x="1124" d="M70 500q0 239 121.5 379.5t316.5 140.5q105 0 183.5 -40t121.5 -108v488h174v-1360h-168l-6 137q-106 -162 -326 -162q-185 0 -301 141.5t-116 383.5zM254 500q0 -177 71 -275t207 -98q59 0 110 22t92 66t64 117.5t23 167.5q0 185 -80 276.5t-209 91.5 q-135 0 -206.5 -96.5t-71.5 -271.5z" />
<glyph unicode="e" d="M70 498q0 233 136 377.5t351 144.5q154 0 266.5 -76t164.5 -206q42 -106 42 -232q0 -29 -2 -60h-774q0 -145 83.5 -231t213.5 -86q115 0 182 45t101 131l178 -22q-38 -133 -157.5 -220.5t-299.5 -87.5q-120 0 -213.5 40t-152.5 111.5t-89 165.5t-30 206zM256 592h588 q-2 52 -21 101t-53.5 89.5t-90 65t-122.5 24.5q-132 0 -213.5 -74.5t-87.5 -205.5z" />
<glyph unicode="f" horiz-adv-x="595" d="M39 860v144h141v73q0 84 10.5 134.5t41.5 86t84 49t141 13.5h90v-148h-86q-67 0 -87 -26t-20 -107v-75h193v-144h-193v-860h-174v860h-141z" />
<glyph unicode="g" horiz-adv-x="1116" d="M70 520q0 232 121 366t317 134q202 0 297 -148l4 132h170v-877q0 -149 -21 -228.5t-67 -129.5q-57 -65 -149 -100.5t-205 -35.5q-176 0 -286.5 79.5t-135.5 228.5l184 6q21 -78 75 -120t165 -42q139 0 209 76q30 33 43.5 81t13.5 146v90q-52 -79 -126 -120.5t-192 -41.5 q-186 0 -301.5 134.5t-115.5 369.5zM254 520q0 -170 70.5 -261t207.5 -91q125 0 203 86.5t78 265.5q0 180 -76 264t-205 84q-136 0 -207 -90t-71 -258z" />
<glyph unicode="h" horiz-adv-x="1099" d="M137 0v1360h174v-496q101 156 330 156q199 0 283 -137q55 -89 55 -267v-616h-174v569q0 149 -37 213q-52 86 -186 86q-128 0 -199.5 -85.5t-71.5 -247.5v-535h-174z" />
<glyph unicode="i" horiz-adv-x="448" d="M137 0v1004h174v-1004h-174zM137 1151v209h174v-209h-174z" />
<glyph unicode="j" horiz-adv-x="448" d="M-18 -207h49q66 0 86 26t20 107v1078h174v-1076q0 -163 -48 -222.5t-193 -59.5h-88v147zM137 1151v209h174v-209h-174z" />
<glyph unicode="k" horiz-adv-x="960" d="M137 0v1360h174v-780l412 424h213l-361 -371l394 -633h-203l-309 510l-146 -150v-360h-174z" />
<glyph unicode="l" horiz-adv-x="448" d="M137 0v1360h174v-1360h-174z" />
<glyph unicode="m" horiz-adv-x="1710" d="M137 0v1004h174v-140q92 156 312 156q114 0 181 -45t105 -129q115 174 353 174q148 0 239 -94q88 -95 88 -310v-616h-174v567q0 184 -57 244q-54 57 -160 57q-115 0 -181.5 -85.5t-66.5 -241.5v-541h-174v567q0 184 -57 244q-54 57 -160 57q-115 0 -181.5 -85.5 t-66.5 -241.5v-541h-174z" />
<glyph unicode="n" horiz-adv-x="1099" d="M137 0v1004h174v-140q101 156 330 156q199 0 283 -137q55 -89 55 -267v-616h-174v569q0 149 -37 213q-52 86 -186 86q-128 0 -199.5 -85.5t-71.5 -247.5v-535h-174z" />
<glyph unicode="o" horiz-adv-x="1085" d="M70 498q0 130 39 232.5t105.5 164.5t150 93.5t178.5 31.5t178.5 -31.5t150 -93.5t105.5 -164.5t39 -232.5t-39 -232.5t-105.5 -164.5t-150 -94t-178.5 -32t-178.5 32t-150 94t-105.5 164.5t-39 232.5zM254 498q0 -188 79 -279.5t210 -91.5t209.5 91.5t78.5 279.5 t-78.5 279t-209.5 91t-210 -91.5t-79 -278.5z" />
<glyph unicode="p" horiz-adv-x="1124" d="M137 -354v1358h170l4 -146q106 162 326 162q185 0 301.5 -141t116.5 -383q0 -239 -122 -380t-317 -141q-105 0 -183.5 40t-121.5 108v-477h-174zM303 496q0 -185 80.5 -277t208.5 -92q135 0 206.5 97t71.5 272q0 177 -71 274.5t-207 97.5q-125 0 -207 -94t-82 -278z" />
<glyph unicode="q" horiz-adv-x="1124" d="M70 500q0 239 121.5 379.5t316.5 140.5q105 0 183.5 -40t121.5 -108v132h174v-1358h-174v491q-106 -162 -326 -162q-185 0 -301 141.5t-116 383.5zM254 500q0 -177 71 -275t207 -98q59 0 110 22t92 66t64 117.5t23 167.5q0 185 -80 276.5t-209 91.5q-135 0 -206.5 -96.5 t-71.5 -271.5z" />
<glyph unicode="r" horiz-adv-x="675" d="M137 0v1004h170v-179q38 86 113.5 134t175.5 51q33 0 51 -2v-185q-56 6 -96 6q-122 0 -181 -73.5t-59 -239.5v-516h-174z" />
<glyph unicode="s" horiz-adv-x="983" d="M57 301l183 16q44 -196 256 -196q104 0 170.5 41.5t66.5 107.5q0 115 -219 162l-131 27q-48 10 -87 22.5t-80 35t-69 51.5t-45.5 73.5t-17.5 99.5q0 85 57.5 149.5t149.5 97t201 32.5q165 0 273 -78.5t138 -210.5l-180 -16q-37 159 -250 159q-89 0 -152 -31.5t-63 -90.5 q0 -56 40.5 -86t125.5 -48l121 -24q63 -13 111 -27.5t97.5 -39.5t82 -56t53 -77.5t20.5 -104.5q0 -147 -117 -230.5t-300 -83.5q-97 0 -178 28.5t-134 75.5t-84.5 104t-38.5 118z" />
<glyph unicode="t" horiz-adv-x="618" d="M25 860v144h161v276h174v-276h193v-144h-193v-579q0 -84 17.5 -109t89.5 -25h86v-147h-125q-77 0 -121.5 9.5t-73 39t-38 77t-9.5 130.5v604h-161z" />
<glyph unicode="u" d="M129 381v623h174v-568q0 -148 33 -213q46 -94 188 -94q119 0 185.5 85.5t66.5 242.5v547h174v-1004h-174v143q-97 -166 -315 -166q-176 0 -262 117q-70 94 -70 287z" />
<glyph unicode="v" horiz-adv-x="927" d="M0 1004h193l278 -764l277 764h180l-387 -1004h-154z" />
<glyph unicode="w" horiz-adv-x="1351" d="M0 1004h186l197 -738l203 738h180l203 -738l196 738h187l-295 -1004h-158l-227 803l-219 -803h-158z" />
<glyph unicode="x" horiz-adv-x="995" d="M20 0l377 516l-354 488h207l250 -347l252 347h194l-348 -482l381 -522h-207l-276 381l-277 -381h-199z" />
<glyph unicode="y" horiz-adv-x="901" d="M14 1004h193l260 -771l254 771h180l-364 -1047q-24 -69 -43 -112t-48 -85t-63.5 -64.5t-85 -36t-117.5 -13.5h-90v151h72q38 0 61 3t48 12.5t41.5 29.5t33 53.5t31.5 84.5l6 20z" />
<glyph unicode="z" horiz-adv-x="929" d="M63 0v143l592 717h-553v144h756v-144l-592 -717h602v-143h-805z" />
<glyph unicode="{" horiz-adv-x="512" d="M20 434v139q88 0 117 48t29 149v307q0 84 10.5 134.5t41 86t83.5 49t141 13.5h90v-148h-86q-66 0 -86 -26t-20 -107v-313q0 -125 -39.5 -181.5t-120.5 -78.5v-4q81 -22 120.5 -78.5t39.5 -181.5v-316q0 -81 20 -107t86 -26h86v-147h-90q-88 0 -141 13.5t-83.5 48.5 t-41 85.5t-10.5 134.5v310q0 101 -29 148.5t-117 47.5z" />
<glyph unicode="|" horiz-adv-x="485" d="M164 -170v1530h158v-1530h-158z" />
<glyph unicode="}" horiz-adv-x="512" d="M-20 -207h86q66 0 86 26t20 107v316q0 125 39.5 181.5t120.5 78.5v4q-81 22 -120.5 78.5t-39.5 181.5v313q0 81 -20 107t-86 26h-86v148h90q88 0 141 -13.5t83.5 -49t41 -86t10.5 -134.5v-307q0 -101 29 -149t117 -48v-139q-88 0 -117 -47.5t-29 -148.5v-310 q0 -84 -10.5 -134.5t-41 -85.5t-83.5 -48.5t-141 -13.5h-90v147z" />
<glyph unicode="~" horiz-adv-x="1097" d="M41 393q8 126 87 204.5t206 78.5q61 0 127 -20.5t112.5 -45t99.5 -45t91 -20.5q54 0 90.5 35t40.5 96h162q-8 -126 -87 -204.5t-206 -78.5q-52 0 -114.5 20.5t-110.5 45t-105 45t-100 20.5q-54 0 -90.5 -35t-40.5 -96h-162z" />
<glyph unicode="&#xa1;" horiz-adv-x="464" d="M123 784v220h219v-220h-219zM147 41l37 559h109l37 -559v-397h-183v397z" />
<glyph unicode="&#xa2;" horiz-adv-x="1038" d="M70 500q0 213 116.5 355t315.5 161v180h88v-178q160 -10 264.5 -108t124.5 -222l-176 -24q-17 83 -73.5 135t-139.5 63v-731q88 12 145.5 66.5t75.5 132.5l178 -23q-24 -127 -133.5 -221t-265.5 -109v-161h-88v161q-203 13 -317.5 157t-114.5 366zM254 502 q0 -163 69 -259t179 -112v731q-110 -14 -179 -107t-69 -253z" />
<glyph unicode="&#xa3;" d="M39 106q37 16 78 43.5t85.5 70.5t73.5 106.5t29 134.5q0 72 -37 170h-227v123h168q-30 57 -45 90t-30 87t-15 105q0 91 40 160t106.5 109t145 59.5t164.5 19.5q217 0 340.5 -122t120.5 -324l-178 -4q-3 160 -82 229.5t-209 69.5q-48 0 -91.5 -10t-84 -32t-64.5 -64 t-24 -99q0 -45 16.5 -97.5t32 -83.5t49.5 -93h373v-123h-315q28 -79 28 -142q0 -189 -200 -307l2 -4q67 25 129 25q51 0 158.5 -37t179.5 -37q106 0 229 51l51 -149q-43 -25 -118 -44.5t-146 -19.5q-72 0 -196.5 38t-200.5 38q-139 0 -279 -76z" />
<glyph unicode="&#xa4;" horiz-adv-x="1210" d="M102 262l131 133q-83 116 -83 264q0 149 83 265l-131 133l95 92l129 -129q121 94 274 94q154 0 281 -96l133 131l94 -92l-135 -135q82 -119 82 -263q0 -143 -84 -260l137 -137l-94 -92l-135 133q-124 -94 -279 -94q-152 0 -272 90l-131 -129zM307 659q0 -130 82.5 -218.5 t208.5 -88.5q132 0 217.5 88.5t85.5 218.5q0 133 -85.5 223.5t-217.5 90.5q-126 0 -208.5 -90.5t-82.5 -223.5z" />
<glyph unicode="&#xa5;" horiz-adv-x="1146" d="M-10 1360h203l376 -694l385 694h203l-455 -760h275v-123h-326v-143h326v-123h-326v-211h-174v211h-311v123h311v143h-311v123h264z" />
<glyph unicode="&#xa6;" horiz-adv-x="432" d="M137 -170v582h158v-582h-158zM137 778v582h158v-582h-158z" />
<glyph unicode="&#xa7;" horiz-adv-x="1103" d="M70 600q0 91 63.5 162t163.5 108q-133 95 -133 246q0 86 55.5 148.5t137.5 91t178 28.5q166 0 271.5 -83t127.5 -222l-178 -8q-16 86 -77.5 127t-152.5 41q-85 0 -135.5 -31.5t-50.5 -83.5q0 -51 34 -89.5t120 -84.5l262 -141q141 -75 209.5 -148t68.5 -182 q0 -97 -59.5 -175.5t-161.5 -125.5q117 -99 117 -229q0 -148 -110.5 -232t-276.5 -84q-178 0 -289 94t-125 253l178 8q29 -209 240 -209q93 0 150 37.5t57 105.5q0 61 -39 109.5t-146 105.5l-245 131q-254 135 -254 332zM242 610q0 -57 34 -100.5t115 -87.5l260 -139 q38 -22 41 -23q74 33 122 81.5t48 109.5q0 63 -46 112t-150 105l-230 123q-82 -25 -138 -71t-56 -110z" />
<glyph unicode="&#xa8;" horiz-adv-x="733" d="M61 1141v188h175v-188h-175zM498 1141v188h174v-188h-174z" />
<glyph unicode="&#xa9;" horiz-adv-x="1570" d="M82 678q0 153 55 285t150 223.5t224.5 143.5t274.5 52q144 0 273 -52t224 -143.5t150.5 -223.5t55.5 -285q0 -204 -95 -366t-255 -249.5t-353 -87.5q-195 0 -355 87.5t-254.5 249.5t-94.5 366zM221 678q0 -126 44 -235t119.5 -183.5t179.5 -117t222 -42.5q120 0 224 42.5 t179 117.5t118 183t43 235q0 170 -73.5 302t-202 203.5t-288.5 71.5q-118 0 -222 -42t-179.5 -116.5t-119.5 -183t-44 -235.5zM432 694q0 179 96.5 281t262.5 102q128 0 209.5 -65t109.5 -170l-139 -39q-18 76 -68.5 115.5t-118.5 39.5q-90 0 -144 -66.5t-54 -197.5 t54.5 -200.5t143.5 -69.5q67 0 119 34t72 107l141 -37q-34 -97 -118 -160t-214 -63q-169 0 -260.5 103t-91.5 286z" />
<glyph unicode="&#xaa;" horiz-adv-x="647" d="M55 969q0 78 58 123q67 48 213 61l104 12v21q0 53 -27.5 74.5t-80.5 21.5t-83.5 -23t-33.5 -67l-131 4q8 86 74 137t180 51q126 0 184 -52.5t57 -166.5q-4 -102 -4 -172q0 -85 13 -196h-129l-5 65q-56 -80 -182 -80q-94 0 -150.5 55.5t-56.5 131.5zM197 969 q0 -35 26.5 -57.5t69.5 -22.5q60 0 100.5 36t40.5 107v35l-104 -12q-70 -7 -101.5 -28t-31.5 -58z" />
<glyph unicode="&#xab;" horiz-adv-x="956" d="M0 500l303 434h186l-286 -434l286 -437h-186zM428 500l303 434h184l-286 -434l286 -437h-184z" />
<glyph unicode="&#xac;" horiz-adv-x="1157" d="M82 655v164h993v-633h-174v469h-819z" />
<glyph unicode="&#xad;" horiz-adv-x="770" d="M82 440v164h606v-164h-606z" />
<glyph unicode="&#xae;" horiz-adv-x="1570" d="M82 678q0 153 55 285t150 223.5t224.5 143.5t274.5 52q144 0 273 -52t224 -143.5t150.5 -223.5t55.5 -285q0 -204 -95 -366t-255 -249.5t-353 -87.5q-195 0 -355 87.5t-254.5 249.5t-94.5 366zM221 678q0 -126 44 -235t119.5 -183.5t179.5 -117t222 -42.5q120 0 224 42.5 t179 117.5t118 183t43 235q0 170 -73.5 302t-202 203.5t-288.5 71.5q-118 0 -222 -42t-179.5 -116.5t-119.5 -183t-44 -235.5zM512 330v745h229q90 0 149.5 -9t108.5 -33t72 -70t23 -117q0 -64 -34 -116.5t-102 -82.5l172 -317h-169l-152 284h-35h-108v-284h-154zM666 733 h108q87 0 126.5 27.5t39.5 83.5q0 62 -45 86t-129 24h-100v-221z" />
<glyph unicode="&#xaf;" horiz-adv-x="653" d="M41 1167v144h571v-144h-571z" />
<glyph unicode="&#xb0;" horiz-adv-x="641" d="M41 1104q0 117 81 198.5t197 81.5q117 0 199 -81.5t82 -198.5q0 -116 -82 -197.5t-199 -81.5q-115 0 -196.5 81.5t-81.5 197.5zM180 1104q0 -63 39.5 -106.5t99.5 -43.5q62 0 103 44t41 106q0 64 -41 107.5t-103 43.5q-61 0 -100 -43.5t-39 -107.5z" />
<glyph unicode="&#xb1;" horiz-adv-x="1157" d="M82 0v164h993v-164h-993zM82 553v164h410v295h174v-295h409v-164h-409v-297h-174v297h-410z" />
<glyph unicode="&#xb2;" horiz-adv-x="659" d="M43 834v112q220 176 279 231q129 120 141 204q2 11 2 22q0 52 -37.5 82.5t-93.5 30.5q-60 0 -99.5 -38t-39.5 -122h-138q-1 121 77.5 194.5t209.5 73.5q119 0 191.5 -56t72.5 -155q0 -33 -11.5 -67t-27 -62.5t-48 -65t-58 -62.5t-74.5 -67t-80 -66t-90 -71h377v-118h-553 z" />
<glyph unicode="&#xb3;" horiz-adv-x="692" d="M45 1063l133 14q11 -66 52 -107.5t112 -41.5q67 0 110.5 33.5t43.5 91.5q0 129 -203 129h-29v112h23q188 0 188 115q0 51 -37.5 79t-93.5 28q-66 0 -106.5 -39t-51.5 -103l-133 15q18 109 94.5 172t204.5 63q69 0 127 -20t97.5 -68.5t39.5 -118.5q0 -56 -30 -101t-80 -71 q64 -25 97.5 -76.5t33.5 -113.5q0 -113 -85 -174.5t-214 -61.5q-128 0 -204 70.5t-89 173.5z" />
<glyph unicode="&#xb4;" horiz-adv-x="516" d="M61 1118l172 242h222l-248 -242h-146z" />
<glyph unicode="&#xb5;" horiz-adv-x="1091" d="M113 -354q20 95 20 301v1057h174v-582q0 -162 52.5 -228.5t168.5 -66.5q119 0 185.5 85.5t66.5 242.5v549h174v-1004h-174v141q-44 -74 -108 -120t-137 -46q-147 0 -228 115v-127q0 -213 -22 -317h-172z" />
<glyph unicode="&#xb6;" horiz-adv-x="991" d="M0 1001q0 169 116.5 264t342.5 95h395v-1530h-143v1397h-232v-1397h-143v836q-66 7 -124 30.5t-106.5 63t-77 101.5t-28.5 140z" />
<glyph unicode="&#xb7;" horiz-adv-x="430" d="M102 412v219h220v-219h-220z" />
<glyph unicode="&#xb8;" horiz-adv-x="464" d="M41 -336l31 78q56 -27 110 -27q48 0 81.5 14.5t33.5 45.5q0 28 -23 42.5t-59 14.5q-47 0 -74 -16l-57 32l98 158h101l-62 -98q30 6 58 6q68 0 106.5 -35t38.5 -94q0 -71 -63.5 -113.5t-143.5 -42.5q-100 0 -176 35z" />
<glyph unicode="&#xb9;" horiz-adv-x="440" d="M25 1417v94q49 2 76.5 5.5t54 13.5t44 29t31.5 51h103v-776h-137v583h-172z" />
<glyph unicode="&#xba;" horiz-adv-x="673" d="M55 1083q0 147 81 224t202 77q119 0 201 -77t82 -224q0 -145 -82 -222t-201 -77q-121 0 -202 76.5t-81 222.5zM197 1083q0 -91 38 -140.5t103 -49.5q64 0 102.5 49.5t38.5 140.5q0 92 -38 141.5t-103 49.5q-66 0 -103.5 -49.5t-37.5 -141.5z" />
<glyph unicode="&#xbb;" horiz-adv-x="956" d="M41 63l287 437l-287 434h184l303 -434l-303 -437h-184zM467 63l287 437l-287 434h186l303 -434l-303 -437h-186z" />
<glyph unicode="&#xbc;" horiz-adv-x="1695" d="M203 1167v95q95 3 137.5 20.5t69.5 77.5h102v-776h-137v583h-172zM274 0l953 1360h192l-952 -1360h-193zM1006 180v115l389 481h135v-473h137v-123h-137v-180h-137v180h-387zM1157 303h236v291z" />
<glyph unicode="&#xbd;" horiz-adv-x="1695" d="M203 1167v95q95 3 137.5 20.5t69.5 77.5h102v-776h-137v583h-172zM274 0l953 1360h192l-952 -1360h-193zM1051 0v113q16 13 47 38q205 163 270 229q104 107 105 189q0 52 -38 82.5t-94 30.5q-60 0 -99.5 -38t-39.5 -122h-137q-1 121 77.5 195t209.5 74q119 0 191.5 -56 t72.5 -155q0 -33 -11.5 -67t-27 -62.5t-48 -65t-58 -62.5t-74.5 -67t-80 -66t-90 -71h377v-119h-553z" />
<glyph unicode="&#xbe;" horiz-adv-x="1695" d="M61 813l134 14q11 -67 51.5 -108t111.5 -41q67 0 110.5 33.5t43.5 91.5q0 129 -203 129h-28v112h22q189 0 189 115q0 51 -38 79t-94 28q-66 0 -106 -38.5t-51 -103.5l-133 15q18 109 94 172t205 63q69 0 127 -20t97.5 -68.5t39.5 -118.5q0 -56 -30.5 -101t-80.5 -71 q64 -25 97.5 -76.5t33.5 -113.5q0 -113 -85 -174.5t-214 -61.5q-128 0 -204 70.5t-89 173.5zM274 0h193l952 1360h-192zM1006 180h387v-180h137v180h137v123h-137v473h-135l-389 -481v-115zM1157 303l236 291v-291h-236z" />
<glyph unicode="&#xbf;" horiz-adv-x="950" d="M25 -45q0 52 16 100.5t37 83t59 73.5t65 61t72 57q10 7 40 29t40 30t30.5 28t28 35t14.5 38.5t7 50.5v59h176v-65q0 -37 -6 -68.5t-21.5 -58.5t-28 -46t-40 -42.5t-42 -35t-48.5 -36t-47 -33.5q-41 -30 -64.5 -50t-51.5 -52t-41 -69.5t-13 -82.5q0 -88 70 -138t186 -50 q74 0 129.5 25.5t85.5 66.5t44.5 83.5t16.5 86.5l174 -6q-1 -121 -61 -215t-164.5 -144.5t-234.5 -50.5q-83 0 -158 20.5t-136 60.5t-97.5 106t-36.5 149zM410 784v220h219v-220h-219z" />
<glyph unicode="&#xc0;" horiz-adv-x="1255" d="M0 0l512 1360h225l518 -1360h-213l-108 295h-627l-104 -295h-203zM283 1645h245l209 -215h-172zM369 465h503l-254 694z" />
<glyph unicode="&#xc1;" horiz-adv-x="1255" d="M0 0l512 1360h225l518 -1360h-213l-108 295h-627l-104 -295h-203zM369 465h503l-254 694zM496 1430l209 215h245l-282 -215h-172z" />
<glyph unicode="&#xc2;" horiz-adv-x="1255" d="M0 0l512 1360h225l518 -1360h-213l-108 295h-627l-104 -295h-203zM287 1430l256 215h159l250 -215h-202l-129 106l-132 -106h-202zM369 465h503l-254 694z" />
<glyph unicode="&#xc3;" horiz-adv-x="1255" d="M0 0l512 1360h225l518 -1360h-213l-108 295h-627l-104 -295h-203zM272 1434q18 107 76.5 160t143.5 53q39 0 77 -14t62.5 -31.5t56.5 -31.5t60 -14q78 0 90 86h135q-19 -111 -79 -163t-142 -52q-39 0 -77.5 14t-64.5 31.5t-58 31.5t-58 14q-37 0 -59 -22t-27 -62h-136z M369 465h503l-254 694z" />
<glyph unicode="&#xc4;" horiz-adv-x="1255" d="M0 0l512 1360h225l518 -1360h-213l-108 295h-627l-104 -295h-203zM315 1444v188h174v-188h-174zM369 465h503l-254 694zM752 1444v188h174v-188h-174z" />
<glyph unicode="&#xc5;" horiz-adv-x="1255" d="M0 0l512 1360h225l518 -1360h-213l-108 295h-627l-104 -295h-203zM369 465h503l-254 694zM449 1573q0 70 50 116t122 46t122 -46t50 -116t-49.5 -116t-122.5 -46t-122.5 46t-49.5 116zM539 1573q0 -34 24.5 -57t57.5 -23t57 23t24 57q0 35 -24 58.5t-57 23.5t-57.5 -23.5 t-24.5 -58.5z" />
<glyph unicode="&#xc6;" horiz-adv-x="1998" d="M0 0l1006 1360h925v-172h-731v-402h688v-172h-688v-442h731v-172h-925v295h-578l-215 -295h-213zM553 465h453v616z" />
<glyph unicode="&#xc7;" horiz-adv-x="1372" d="M96 682q0 321 174.5 511.5t466.5 190.5q216 0 369 -112t197 -305l-189 -27q-32 126 -129.5 201.5t-255.5 75.5q-191 0 -312.5 -140t-121.5 -395q0 -252 121 -395.5t317 -143.5q159 0 257.5 74t131.5 203l189 -27q-45 -197 -201.5 -306.5t-382.5 -111.5l-41 -67q30 6 57 6 q68 0 107 -35t39 -94q0 -71 -63.5 -113.5t-143.5 -42.5q-100 0 -176 35l31 78q56 -27 110 -27q47 0 81 14.5t34 45.5q0 28 -23 42.5t-59 14.5q-47 0 -74 -16l-57 32l82 134q-252 29 -393.5 217.5t-141.5 482.5z" />
<glyph unicode="&#xc8;" horiz-adv-x="1167" d="M164 0v1360h936v-172h-742v-402h699v-172h-699v-442h742v-172h-936zM354 1645h246l209 -215h-172z" />
<glyph unicode="&#xc9;" horiz-adv-x="1167" d="M164 0v1360h936v-172h-742v-402h699v-172h-699v-442h742v-172h-936zM471 1430l209 215h246l-283 -215h-172z" />
<glyph unicode="&#xca;" horiz-adv-x="1167" d="M164 0v1360h936v-172h-742v-402h699v-172h-699v-442h742v-172h-936zM309 1430l256 215h160l250 -215h-203l-129 106l-131 -106h-203z" />
<glyph unicode="&#xcb;" horiz-adv-x="1167" d="M164 0v1360h936v-172h-742v-402h699v-172h-699v-442h742v-172h-936zM319 1444v188h175v-188h-175zM756 1444v188h174v-188h-174z" />
<glyph unicode="&#xcc;" horiz-adv-x="522" d="M-100 1645h245l209 -215h-172zM164 0v1360h194v-1360h-194z" />
<glyph unicode="&#xcd;" horiz-adv-x="522" d="M164 0v1360h194v-1360h-194zM166 1430l209 215h246l-283 -215h-172z" />
<glyph unicode="&#xce;" horiz-adv-x="522" d="M-27 1430l215 215h160l209 -215h-182l-109 106l-110 -106h-183zM164 0v1360h194v-1360h-194z" />
<glyph unicode="&#xcf;" horiz-adv-x="522" d="M0 1444v188h174v-188h-174zM164 0v1360h194v-1360h-194zM350 1444v188h174v-188h-174z" />
<glyph unicode="&#xd0;" horiz-adv-x="1394" d="M41 614v172h156v574h315q137 0 250.5 -20t215 -68.5t170.5 -124.5t109.5 -194.5t40.5 -272.5t-40.5 -272.5t-109.5 -194.5t-170.5 -124.5t-215 -68.5t-250.5 -20h-315v614h-156zM391 172h115q71 0 124 3.5t118.5 15.5t112.5 33t94.5 59t77.5 91t48.5 130.5t18.5 175.5 t-18.5 175.5t-48.5 130.5t-77.5 91t-94.5 59t-112.5 33t-118.5 15.5t-124 3.5h-115v-402h268v-172h-268v-442z" />
<glyph unicode="&#xd1;" horiz-adv-x="1437" d="M164 0v1360h285l630 -1155v1155h195v-1360h-285l-631 1157v-1157h-194zM395 1434q18 107 76 160t143 53q39 0 77 -14t62.5 -31.5t56.5 -31.5t60 -14q37 0 61 22t30 64h135q-19 -111 -79.5 -163t-142.5 -52q-39 0 -77.5 14t-64.5 31.5t-58 31.5t-58 14q-37 0 -59 -22 t-27 -62h-135z" />
<glyph unicode="&#xd2;" horiz-adv-x="1486" d="M96 680q0 312 181 508t468 196q290 0 468 -190t178 -514q0 -323 -179.5 -514t-470.5 -191q-195 0 -342 89.5t-225 249t-78 366.5zM295 680q0 -253 126 -395t322 -142t322.5 142t126.5 395t-126.5 395t-322.5 142t-322 -142t-126 -395zM440 1645h246l209 -215h-172z" />
<glyph unicode="&#xd3;" horiz-adv-x="1486" d="M96 680q0 312 181 508t468 196q290 0 468 -190t178 -514q0 -323 -179.5 -514t-470.5 -191q-195 0 -342 89.5t-225 249t-78 366.5zM295 680q0 -253 126 -395t322 -142t322.5 142t126.5 395t-126.5 395t-322.5 142t-322 -142t-126 -395zM561 1430l209 215h246l-283 -215 h-172z" />
<glyph unicode="&#xd4;" horiz-adv-x="1486" d="M96 680q0 312 181 508t468 196q290 0 468 -190t178 -514q0 -323 -179.5 -514t-470.5 -191q-195 0 -342 89.5t-225 249t-78 366.5zM295 680q0 -253 126 -395t322 -142t322.5 142t126.5 395t-126.5 395t-322.5 142t-322 -142t-126 -395zM408 1430l256 215h159l250 -215 h-203l-129 106l-131 -106h-202z" />
<glyph unicode="&#xd5;" horiz-adv-x="1486" d="M96 680q0 312 181 508t468 196q290 0 468 -190t178 -514q0 -323 -179.5 -514t-470.5 -191q-195 0 -342 89.5t-225 249t-78 366.5zM295 680q0 -253 126 -395t322 -142t322.5 142t126.5 395t-126.5 395t-322.5 142t-322 -142t-126 -395zM381 1434q18 107 76 160t143 53 q39 0 77 -14t62.5 -31.5t56.5 -31.5t60 -14q78 0 90 86h135q-19 -111 -79 -163t-142 -52q-39 0 -77.5 14t-64.5 31.5t-58 31.5t-58 14q-37 0 -59 -22t-27 -62h-135z" />
<glyph unicode="&#xd6;" horiz-adv-x="1486" d="M96 680q0 312 181 508t468 196q290 0 468 -190t178 -514q0 -323 -179.5 -514t-470.5 -191q-195 0 -342 89.5t-225 249t-78 366.5zM295 680q0 -253 126 -395t322 -142t322.5 142t126.5 395t-126.5 395t-322.5 142t-322 -142t-126 -395zM430 1444v188h174v-188h-174z M866 1444v188h174v-188h-174z" />
<glyph unicode="&#xd7;" horiz-adv-x="976" d="M41 193l319 317l-319 321l123 123l319 -319l320 317l123 -123l-320 -319l330 -330l-123 -123l-330 330l-319 -317z" />
<glyph unicode="&#xd8;" horiz-adv-x="1474" d="M96 680q0 206 80.5 366t227 249t335.5 89q245 0 410 -137l121 142l78 -66l-127 -149q157 -190 157 -494q0 -324 -176.5 -514.5t-466.5 -190.5q-243 0 -413 144l-125 -146l-76 68l129 152q-154 189 -154 487zM295 680q0 -205 82 -338l651 762q-119 113 -291 113 q-195 0 -318.5 -141.5t-123.5 -395.5zM440 260q117 -117 297 -117q195 0 319 141.5t124 395.5q0 210 -86 344z" />
<glyph unicode="&#xd9;" horiz-adv-x="1392" d="M143 561v799h195v-819q0 -207 82 -302.5t274 -95.5q193 0 277 103.5t84 314.5v799h194v-782q0 -309 -130 -456t-425 -147q-195 0 -314 57t-178 185.5t-59 343.5zM414 1645h245l209 -215h-172z" />
<glyph unicode="&#xda;" horiz-adv-x="1392" d="M143 561v799h195v-819q0 -207 82 -302.5t274 -95.5q193 0 277 103.5t84 314.5v799h194v-782q0 -309 -130 -456t-425 -147q-195 0 -314 57t-178 185.5t-59 343.5zM530 1430l209 215h246l-283 -215h-172z" />
<glyph unicode="&#xdb;" horiz-adv-x="1392" d="M143 561v799h195v-819q0 -207 82 -302.5t274 -95.5q193 0 277 103.5t84 314.5v799h194v-782q0 -309 -130 -456t-425 -147q-195 0 -314 57t-178 185.5t-59 343.5zM367 1430l256 215h159l250 -215h-203l-129 106l-131 -106h-202z" />
<glyph unicode="&#xdc;" horiz-adv-x="1392" d="M143 561v799h195v-819q0 -207 82 -302.5t274 -95.5q193 0 277 103.5t84 314.5v799h194v-782q0 -309 -130 -456t-425 -147q-195 0 -314 57t-178 185.5t-59 343.5zM377 1444v188h174v-188h-174zM813 1444v188h174v-188h-174z" />
<glyph unicode="&#xdd;" horiz-adv-x="1187" d="M0 1360h213l377 -674l385 674h213l-506 -846v-514h-195v518zM406 1430l208 215h246l-282 -215h-172z" />
<glyph unicode="&#xde;" horiz-adv-x="1179" d="M164 0v1360h194v-240h207q106 0 189 -11.5t157.5 -41t123 -77t76.5 -123t28 -175.5t-28 -175.5t-76.5 -123t-123 -77t-157.5 -41t-189 -11.5h-207v-264h-194zM358 436h222q68 0 116.5 5t97 20.5t79 43t49 74.5t18.5 113t-18.5 113t-49 74.5t-79 43t-97 20.5t-116.5 5 h-222v-512z" />
<glyph unicode="&#xdf;" horiz-adv-x="1204" d="M137 0v922q0 225 105 333q124 129 383 129q188 0 309 -87.5t121 -235.5q0 -208 -207 -295q287 -73 287 -365q0 -92 -28.5 -165.5t-76 -121.5t-113.5 -80t-138 -45.5t-152 -13.5q-97 0 -207 21l37 166q80 -25 178 -25q51 0 94.5 7.5t84.5 26t70 47.5t46.5 75t17.5 106 q0 275 -387 275h-6v155h4q154 0 237 53t83 154q0 90 -70.5 143.5t-185.5 53.5q-185 0 -254 -90q-58 -75 -58 -232v-911h-174z" />
<glyph unicode="&#xe0;" horiz-adv-x="1054" d="M82 301q0 -137 93.5 -231.5t260.5 -94.5q237 0 338 166l6 -141h168q-22 242 -20 387l4 254q3 202 -90 291.5t-307 89.5q-175 0 -293 -85.5t-127 -236.5l170 -6q8 87 67.5 137t173.5 50q110 0 171 -46t61 -161v-37l-195 -21q-232 -25 -346 -88q-135 -76 -135 -227z M266 295q0 82 71.5 123t223.5 55l209 21v-60q0 -67 -18 -120.5t-47 -87.5t-69 -57t-81.5 -32.5t-85.5 -9.5q-91 0 -147 45t-56 123zM283 1360h221l172 -242h-146z" />
<glyph unicode="&#xe1;" horiz-adv-x="1054" d="M82 301q0 -137 93.5 -231.5t260.5 -94.5q237 0 338 166l6 -141h168q-22 242 -20 387l4 254q3 202 -90 291.5t-307 89.5q-175 0 -293 -85.5t-127 -236.5l170 -6q8 87 67.5 137t173.5 50q110 0 171 -46t61 -161v-37l-195 -21q-232 -25 -346 -88q-135 -76 -135 -227z M266 295q0 82 71.5 123t223.5 55l209 21v-60q0 -67 -18 -120.5t-47 -87.5t-69 -57t-81.5 -32.5t-85.5 -9.5q-91 0 -147 45t-56 123zM387 1118l172 242h221l-248 -242h-145z" />
<glyph unicode="&#xe2;" horiz-adv-x="1054" d="M82 301q0 -137 93.5 -231.5t260.5 -94.5q237 0 338 166l6 -141h168q-22 242 -20 387l4 254q3 202 -90 291.5t-307 89.5q-175 0 -293 -85.5t-127 -236.5l170 -6q8 87 67.5 137t173.5 50q110 0 171 -46t61 -161v-37l-195 -21q-232 -25 -346 -88q-135 -76 -135 -227z M193 1118l251 242h168l246 -242h-182l-150 123l-151 -123h-182zM266 295q0 82 71.5 123t223.5 55l209 21v-60q0 -67 -18 -120.5t-47 -87.5t-69 -57t-81.5 -32.5t-85.5 -9.5q-91 0 -147 45t-56 123z" />
<glyph unicode="&#xe3;" horiz-adv-x="1054" d="M82 301q0 -137 93.5 -231.5t260.5 -94.5q237 0 338 166l6 -141h168q-22 242 -20 387l4 254q3 202 -90 291.5t-307 89.5q-175 0 -293 -85.5t-127 -236.5l170 -6q8 87 67.5 137t173.5 50q110 0 171 -46t61 -161v-37l-195 -21q-232 -25 -346 -88q-135 -76 -135 -227z M182 1137q18 107 76 160t143 53q50 0 95.5 -22.5t85.5 -45t75 -22.5q37 0 61 22t30 64h135q-19 -112 -79 -164t-142 -52q-49 0 -97 23t-89 45.5t-73 22.5q-37 0 -59 -22t-27 -62h-135zM266 295q0 82 71.5 123t223.5 55l209 21v-60q0 -67 -18 -120.5t-47 -87.5t-69 -57 t-81.5 -32.5t-85.5 -9.5q-91 0 -147 45t-56 123z" />
<glyph unicode="&#xe4;" horiz-adv-x="1054" d="M82 301q0 -137 93.5 -231.5t260.5 -94.5q237 0 338 166l6 -141h168q-22 242 -20 387l4 254q3 202 -90 291.5t-307 89.5q-175 0 -293 -85.5t-127 -236.5l170 -6q8 87 67.5 137t173.5 50q110 0 171 -46t61 -161v-37l-195 -21q-232 -25 -346 -88q-135 -76 -135 -227z M223 1141v188h174v-188h-174zM266 295q0 82 71.5 123t223.5 55l209 21v-60q0 -67 -18 -120.5t-47 -87.5t-69 -57t-81.5 -32.5t-85.5 -9.5q-91 0 -147 45t-56 123zM659 1141v188h175v-188h-175z" />
<glyph unicode="&#xe5;" horiz-adv-x="1054" d="M82 301q0 -137 93.5 -231.5t260.5 -94.5q237 0 338 166l6 -141h168q-22 242 -20 387l4 254q3 202 -90 291.5t-307 89.5q-175 0 -293 -85.5t-127 -236.5l170 -6q8 87 67.5 137t173.5 50q110 0 171 -46t61 -161v-37l-195 -21q-232 -25 -346 -88q-135 -76 -135 -227z M266 295q0 82 71.5 123t223.5 55l209 21v-60q0 -67 -18 -120.5t-47 -87.5t-69 -57t-81.5 -32.5t-85.5 -9.5q-91 0 -147 45t-56 123zM371 1264q0 69 50 115t122 46t122 -46t50 -115q0 -70 -49.5 -116t-122.5 -46t-122.5 46t-49.5 116zM461 1264q0 -34 24.5 -57t57.5 -23 t57.5 23t24.5 57q0 35 -24.5 58.5t-57.5 23.5t-57.5 -23.5t-24.5 -58.5z" />
<glyph unicode="&#xe6;" horiz-adv-x="1757" d="M82 301q0 149 135 225q115 66 346 90l195 21v37q0 115 -61 161t-171 46q-115 0 -174 -52t-65 -143l-172 8q7 154 125.5 240t294.5 86q257 0 342 -162q127 162 352 162q154 0 266 -76t164 -206t39 -292h-774q0 -142 83 -229.5t226 -87.5q202 0 270 176l178 -22 q-36 -131 -154.5 -219.5t-297.5 -88.5q-268 0 -385 209q-38 -72 -106 -120.5t-142 -68.5t-154 -20q-172 0 -266 94.5t-94 231.5zM266 295q0 -78 56 -123t147 -45q44 0 85.5 9.5t81.5 32.5t69 57t47 87.5t18 120.5v60l-209 -21q-152 -14 -223.5 -55t-71.5 -123zM926 592h587 q-3 111 -78.5 195.5t-203.5 84.5q-134 0 -216 -75t-89 -205z" />
<glyph unicode="&#xe7;" horiz-adv-x="1038" d="M70 500q0 149 56.5 265.5t168 185.5t262.5 69q90 0 167.5 -29.5t129.5 -78t84 -106.5t41 -118l-176 -24q-19 94 -88 148t-170 54q-127 0 -209 -93.5t-82 -270.5q0 -179 83 -276t208 -97q106 0 176 56.5t90 144.5l178 -23q-26 -135 -147 -231.5t-291 -100.5l-41 -67 q30 6 57 6q68 0 107 -35t39 -94q0 -71 -63.5 -113.5t-143.5 -42.5q-100 0 -176 35l30 78q56 -27 111 -27q47 0 81 14.5t34 45.5q0 28 -23 42.5t-59 14.5q-47 0 -74 -16l-57 32l82 134q-182 29 -283.5 169.5t-101.5 348.5z" />
<glyph unicode="&#xe8;" d="M70 498q0 233 136 377.5t351 144.5q154 0 266.5 -76t164.5 -206t40 -292h-774q0 -145 83.5 -231t213.5 -86q115 0 182 45t101 131l178 -22q-38 -133 -157.5 -220.5t-299.5 -87.5q-120 0 -213.5 40t-152.5 111.5t-89 165.5t-30 206zM256 592h588q-2 52 -21 101t-53.5 89.5 t-90 65t-122.5 24.5q-132 0 -213.5 -74.5t-87.5 -205.5zM305 1360h221l172 -242h-145z" />
<glyph unicode="&#xe9;" d="M70 498q0 233 136 377.5t351 144.5q154 0 266.5 -76t164.5 -206t40 -292h-774q0 -145 83.5 -231t213.5 -86q115 0 182 45t101 131l178 -22q-38 -133 -157.5 -220.5t-299.5 -87.5q-120 0 -213.5 40t-152.5 111.5t-89 165.5t-30 206zM256 592h588q-2 52 -21 101t-53.5 89.5 t-90 65t-122.5 24.5q-132 0 -213.5 -74.5t-87.5 -205.5zM412 1118l172 242h221l-248 -242h-145z" />
<glyph unicode="&#xea;" d="M70 498q0 233 136 377.5t351 144.5q154 0 266.5 -76t164.5 -206t40 -292h-774q0 -145 83.5 -231t213.5 -86q115 0 182 45t101 131l178 -22q-38 -133 -157.5 -220.5t-299.5 -87.5q-120 0 -213.5 40t-152.5 111.5t-89 165.5t-30 206zM215 1118l252 242h168l246 -242h-183 l-149 123l-152 -123h-182zM256 592h588q-2 52 -21 101t-53.5 89.5t-90 65t-122.5 24.5q-132 0 -213.5 -74.5t-87.5 -205.5z" />
<glyph unicode="&#xeb;" d="M70 498q0 233 136 377.5t351 144.5q154 0 266.5 -76t164.5 -206t40 -292h-774q0 -145 83.5 -231t213.5 -86q115 0 182 45t101 131l178 -22q-38 -133 -157.5 -220.5t-299.5 -87.5q-120 0 -213.5 40t-152.5 111.5t-89 165.5t-30 206zM244 1141v188h174v-188h-174zM256 592 h588q-2 52 -21 101t-53.5 89.5t-90 65t-122.5 24.5q-132 0 -213.5 -74.5t-87.5 -205.5zM680 1141v188h174v-188h-174z" />
<glyph unicode="&#xec;" horiz-adv-x="448" d="M-90 1360h221l172 -242h-145zM137 0v1004h174v-1004h-174z" />
<glyph unicode="&#xed;" horiz-adv-x="448" d="M137 0v1004h174v-1004h-174zM139 1118l172 242h221l-247 -242h-146z" />
<glyph unicode="&#xee;" horiz-adv-x="448" d="M-68 1098l232 262h127l225 -262h-192l-99 135l-100 -135h-193zM137 0v1004h174v-1004h-174z" />
<glyph unicode="&#xef;" horiz-adv-x="448" d="M-39 1145v188h174v-188h-174zM137 0v1004h174v-1004h-174zM315 1145v188h174v-188h-174z" />
<glyph unicode="&#xf0;" horiz-adv-x="1091" d="M70 500q0 239 121.5 379.5t316.5 140.5q184 0 293 -148l2 2q-72 167 -254 287l-148 -90l-86 47l150 92q-25 13 -152 76l125 113q88 -43 174 -96l131 81l88 -49l-143 -88q322 -247 322 -655q0 -304 -129.5 -460.5t-350.5 -156.5q-215 0 -337.5 139.5t-122.5 385.5z M254 500q0 -177 71 -275t207 -98q130 0 209.5 93t79.5 280q0 185 -80.5 277.5t-208.5 92.5q-135 0 -206.5 -97.5t-71.5 -272.5z" />
<glyph unicode="&#xf1;" horiz-adv-x="1099" d="M137 0v1004h174v-140q101 156 330 156q199 0 283 -137q55 -89 55 -267v-616h-174v569q0 149 -37 213q-52 86 -186 86q-128 0 -199.5 -85.5t-71.5 -247.5v-535h-174zM227 1137q18 107 76 160t143 53q50 0 95.5 -22.5t85.5 -45t75 -22.5q37 0 61 22t30 64h135 q-19 -112 -79 -164t-142 -52q-49 0 -96.5 23t-88.5 45.5t-73 22.5q-37 0 -59.5 -22t-27.5 -62h-135z" />
<glyph unicode="&#xf2;" horiz-adv-x="1085" d="M70 498q0 130 39 232.5t105.5 164.5t150 93.5t178.5 31.5t178.5 -31.5t150 -93.5t105.5 -164.5t39 -232.5t-39 -232.5t-105.5 -164.5t-150 -94t-178.5 -32t-178.5 32t-150 94t-105.5 164.5t-39 232.5zM254 498q0 -188 79 -279.5t210 -91.5t209.5 91.5t78.5 279.5 t-78.5 279t-209.5 91t-210 -91.5t-79 -278.5zM326 1360h221l172 -242h-146z" />
<glyph unicode="&#xf3;" horiz-adv-x="1085" d="M70 498q0 130 39 232.5t105.5 164.5t150 93.5t178.5 31.5t178.5 -31.5t150 -93.5t105.5 -164.5t39 -232.5t-39 -232.5t-105.5 -164.5t-150 -94t-178.5 -32t-178.5 32t-150 94t-105.5 164.5t-39 232.5zM254 498q0 -188 79 -279.5t210 -91.5t209.5 91.5t78.5 279.5 t-78.5 279t-209.5 91t-210 -91.5t-79 -278.5zM436 1118l172 242h221l-247 -242h-146z" />
<glyph unicode="&#xf4;" horiz-adv-x="1085" d="M70 498q0 130 39 232.5t105.5 164.5t150 93.5t178.5 31.5t178.5 -31.5t150 -93.5t105.5 -164.5t39 -232.5t-39 -232.5t-105.5 -164.5t-150 -94t-178.5 -32t-178.5 32t-150 94t-105.5 164.5t-39 232.5zM209 1118l252 242h168l245 -242h-182l-149 123l-152 -123h-182z M254 498q0 -188 79 -279.5t210 -91.5t209.5 91.5t78.5 279.5t-78.5 279t-209.5 91t-210 -91.5t-79 -278.5z" />
<glyph unicode="&#xf5;" horiz-adv-x="1085" d="M70 498q0 130 39 232.5t105.5 164.5t150 93.5t178.5 31.5t178.5 -31.5t150 -93.5t105.5 -164.5t39 -232.5t-39 -232.5t-105.5 -164.5t-150 -94t-178.5 -32t-178.5 32t-150 94t-105.5 164.5t-39 232.5zM203 1137q18 107 76 160t143 53q50 0 95.5 -22.5t85.5 -45t75 -22.5 q78 0 90 86h135q-19 -112 -79 -164t-142 -52q-49 0 -96.5 23t-88.5 45.5t-73 22.5q-37 0 -59 -22t-27 -62h-135zM254 498q0 -188 79 -279.5t210 -91.5t209.5 91.5t78.5 279.5t-78.5 279t-209.5 91t-210 -91.5t-79 -278.5z" />
<glyph unicode="&#xf6;" horiz-adv-x="1085" d="M70 498q0 130 39 232.5t105.5 164.5t150 93.5t178.5 31.5t178.5 -31.5t150 -93.5t105.5 -164.5t39 -232.5t-39 -232.5t-105.5 -164.5t-150 -94t-178.5 -32t-178.5 32t-150 94t-105.5 164.5t-39 232.5zM238 1141v188h174v-188h-174zM254 498q0 -188 79 -279.5t210 -91.5 t209.5 91.5t78.5 279.5t-78.5 279t-209.5 91t-210 -91.5t-79 -278.5zM674 1141v188h174v-188h-174z" />
<glyph unicode="&#xf7;" horiz-adv-x="1136" d="M72 410h993v163h-993v-163zM463 61v220h219v-220h-219zM463 723v219h219v-219h-219z" />
<glyph unicode="&#xf8;" horiz-adv-x="1089" d="M70 498q0 130 40 232.5t107.5 164.5t151 93.5t176.5 31.5q176 0 301 -102l90 104l78 -66l-99 -112q105 -140 105 -346q0 -130 -40 -232.5t-107.5 -164.5t-151 -94t-176.5 -32q-177 0 -299 99l-86 -99l-76 68l90 104q-104 139 -104 351zM254 498q0 -129 39 -215l446 514 q-74 71 -194 71q-133 0 -212 -91t-79 -279zM352 197q70 -70 193 -70q133 0 212 91.5t79 279.5q0 133 -37 211z" />
<glyph unicode="&#xf9;" d="M129 381v623h174v-568q0 -148 33 -213q46 -94 188 -94q119 0 185.5 85.5t66.5 242.5v547h174v-1004h-174v143q-97 -166 -315 -166q-176 0 -262 117q-70 94 -70 287zM303 1360h221l172 -242h-145z" />
<glyph unicode="&#xfa;" d="M129 381v623h174v-568q0 -148 33 -213q46 -94 188 -94q119 0 185.5 85.5t66.5 242.5v547h174v-1004h-174v143q-97 -166 -315 -166q-176 0 -262 117q-70 94 -70 287zM414 1118l172 242h221l-248 -242h-145z" />
<glyph unicode="&#xfb;" d="M129 381v623h174v-568q0 -148 33 -213q46 -94 188 -94q119 0 185.5 85.5t66.5 242.5v547h174v-1004h-174v143q-97 -166 -315 -166q-176 0 -262 117q-70 94 -70 287zM221 1118l252 242h168l246 -242h-182l-150 123l-152 -123h-182z" />
<glyph unicode="&#xfc;" d="M129 381v623h174v-568q0 -148 33 -213q46 -94 188 -94q119 0 185.5 85.5t66.5 242.5v547h174v-1004h-174v143q-97 -166 -315 -166q-176 0 -262 117q-70 94 -70 287zM250 1141v188h174v-188h-174zM686 1141v188h174v-188h-174z" />
<glyph unicode="&#xfd;" horiz-adv-x="901" d="M14 1004l369 -1004l-6 -20q-15 -51 -31.5 -84.5t-33 -53.5t-41.5 -29.5t-48 -12.5t-61 -3h-72v-151h90q67 0 117.5 13.5t85 36t63.5 64.5t48 85t43 112l364 1047h-180l-254 -771l-260 771h-193zM352 1118l172 242h221l-247 -242h-146z" />
<glyph unicode="&#xfe;" horiz-adv-x="1124" d="M137 -354v1714h174v-502q106 162 326 162q185 0 301.5 -141t116.5 -383q0 -239 -122 -380t-317 -141q-105 0 -183.5 40t-121.5 108v-477h-174zM303 496q0 -185 80.5 -277t208.5 -92q135 0 206.5 97t71.5 272q0 177 -71 274.5t-207 97.5q-125 0 -207 -94t-82 -278z" />
<glyph unicode="&#xff;" horiz-adv-x="901" d="M14 1004l369 -1004l-6 -20q-15 -51 -31.5 -84.5t-33 -53.5t-41.5 -29.5t-48 -12.5t-61 -3h-72v-151h90q67 0 117.5 13.5t85 36t63.5 64.5t48 85t43 112l364 1047h-180l-254 -771l-260 771h-193zM166 1141v188h174v-188h-174zM602 1141v188h174v-188h-174z" />
<glyph unicode="&#x152;" horiz-adv-x="2158" d="M96 680q0 206 80.5 366t227 249t335.5 89q263 0 426 -163v139h926v-172h-731v-402h688v-172h-688v-442h731v-172h-926v141q-166 -166 -430 -166q-194 0 -340 89.5t-222.5 249t-76.5 366.5zM295 680q0 -254 123.5 -395.5t318.5 -141.5t319 141.5t124 395.5t-124 395.5 t-319 141.5t-318.5 -141.5t-123.5 -395.5z" />
<glyph unicode="&#x153;" horiz-adv-x="1835" d="M70 498q0 130 40 232.5t107.5 164.5t151 93.5t176.5 31.5q117 0 216.5 -51.5t160.5 -151.5q61 97 159.5 150t225.5 53q154 0 266 -76t164 -206t39 -292h-775q0 -147 86 -232t220 -85q203 0 274 176l178 -22q-35 -129 -154.5 -218.5t-297.5 -89.5q-133 0 -230.5 53 t-156.5 148q-61 -100 -159 -150.5t-216 -50.5q-93 0 -176.5 32t-151 94t-107.5 164.5t-40 232.5zM254 498q0 -188 79 -279.5t212 -91.5t212 91.5t79 279.5t-79 279t-212 91t-212 -91t-79 -279zM1004 592h587q-3 111 -78 195.5t-204 84.5q-132 0 -215 -73.5t-90 -206.5z" />
<glyph unicode="&#x178;" horiz-adv-x="1187" d="M0 1360h213l377 -674l385 674h213l-506 -846v-514h-195v518zM285 1444v188h174v-188h-174zM721 1444v188h174v-188h-174z" />
<glyph unicode="&#x2c6;" horiz-adv-x="747" d="M41 1118l252 242h168l246 -242h-183l-149 123l-152 -123h-182z" />
<glyph unicode="&#x2dc;" horiz-adv-x="782" d="M41 1137q18 107 76 160t143 53q50 0 95.5 -22.5t85.5 -45t75 -22.5q78 0 90 86h135q-19 -112 -79 -164t-142 -52q-49 0 -96.5 23t-88.5 45.5t-73 22.5q-37 0 -59 -22t-27 -62h-135z" />
<glyph unicode="&#x2000;" horiz-adv-x="867" />
<glyph unicode="&#x2001;" horiz-adv-x="1735" />
<glyph unicode="&#x2002;" horiz-adv-x="867" />
<glyph unicode="&#x2003;" horiz-adv-x="1735" />
<glyph unicode="&#x2004;" horiz-adv-x="578" />
<glyph unicode="&#x2005;" horiz-adv-x="433" />
<glyph unicode="&#x2006;" horiz-adv-x="289" />
<glyph unicode="&#x2007;" horiz-adv-x="289" />
<glyph unicode="&#x2008;" horiz-adv-x="216" />
<glyph unicode="&#x2009;" horiz-adv-x="347" />
<glyph unicode="&#x200a;" horiz-adv-x="96" />
<glyph unicode="&#x2010;" horiz-adv-x="770" d="M82 440v164h606v-164h-606z" />
<glyph unicode="&#x2011;" horiz-adv-x="770" d="M82 440v164h606v-164h-606z" />
<glyph unicode="&#x2012;" horiz-adv-x="770" d="M82 440v164h606v-164h-606z" />
<glyph unicode="&#x2013;" horiz-adv-x="974" d="M72 440v164h831v-164h-831z" />
<glyph unicode="&#x2014;" horiz-adv-x="1376" d="M61 440v164h1254v-164h-1254z" />
<glyph unicode="&#x2018;" horiz-adv-x="464" d="M123 877v233l117 250h110l-100 -264h92v-219h-219z" />
<glyph unicode="&#x2019;" horiz-adv-x="464" d="M115 877l100 264h-92v219h219v-234l-117 -249h-110z" />
<glyph unicode="&#x201a;" horiz-adv-x="464" d="M115 -264l100 264h-92v219h219v-233l-117 -250h-110z" />
<glyph unicode="&#x201c;" horiz-adv-x="784" d="M123 877v233l117 250h110l-100 -264h92v-219h-219zM442 877v233l117 250h111l-101 -264h93v-219h-220z" />
<glyph unicode="&#x201d;" horiz-adv-x="784" d="M115 877l100 264h-92v219h219v-234l-117 -249h-110zM434 877l101 264h-93v219h220v-234l-117 -249h-111z" />
<glyph unicode="&#x201e;" horiz-adv-x="802" d="M115 -264l100 264h-92v219h219v-233l-117 -250h-110zM453 -264l100 264h-92v219h219v-233l-117 -250h-110z" />
<glyph unicode="&#x2022;" horiz-adv-x="849" d="M82 530q0 139 99 238.5t237 99.5q148 0 249 -98.5t101 -239.5q0 -148 -100.5 -248t-249.5 -100q-139 0 -237.5 100.5t-98.5 247.5z" />
<glyph unicode="&#x2026;" horiz-adv-x="1482" d="M123 0v219h219v-219h-219zM633 0v219h219v-219h-219zM1141 0v219h219v-219h-219z" />
<glyph unicode="&#x202f;" horiz-adv-x="347" />
<glyph unicode="&#x2039;" horiz-adv-x="530" d="M0 500l303 434h186l-286 -434l286 -437h-186z" />
<glyph unicode="&#x203a;" horiz-adv-x="530" d="M41 63l287 437l-287 434h186l303 -434l-303 -437h-186z" />
<glyph unicode="&#x205f;" horiz-adv-x="433" />
<glyph unicode="&#x20ac;" horiz-adv-x="1335" d="M-29 492l82 120h113q0 11 -1 36t-1 38q0 30 4 88h-197l82 121h129q47 232 201 360.5t383 128.5q207 0 354.5 -125t171.5 -331l-180 -6q-20 150 -117 230.5t-241 80.5t-243.5 -86t-137.5 -252h530l-82 -121h-467q-4 -58 -4 -88q0 -51 2 -74h398l-82 -120h-301 q36 -178 137 -271.5t250 -93.5q144 0 242.5 80t119.5 231l180 -6q-16 -139 -91.5 -244t-191 -159t-253.5 -54q-238 0 -388.5 135.5t-193.5 381.5h-207z" />
<glyph unicode="&#x2122;" horiz-adv-x="1615" d="M10 1235v125h627v-125h-238v-635h-151v635h-238zM700 600v760h236l197 -569l190 569h231v-760h-151v559l-199 -559h-151l-201 559v-559h-152z" />
<glyph unicode="&#x25fc;" horiz-adv-x="1003" d="M0 0v1004h1004v-1004h-1004z" />
</font>
</defs>
</svg>
